<svg width="100" height="100" viewBox="0 0 100 100" fill="none" xmlns="http://www.w3.org/2000/svg">
<g clip-path="url(#clip0_973_2680)">
<path d="M50 100C77.6142 100 100 77.6142 100 50C100 22.3858 77.6142 0 50 0C22.3858 0 0 22.3858 0 50C0 77.6142 22.3858 100 50 100Z" fill="white"/>
<path d="M50 97.2561C76.0988 97.2561 97.2561 76.0988 97.2561 50C97.2561 23.9012 76.0988 2.7439 50 2.7439C23.9012 2.7439 2.7439 23.9012 2.7439 50C2.7439 76.0988 23.9012 97.2561 50 97.2561Z" fill="#AA9868"/>
<path d="M50 94.5122C74.5834 94.5122 94.5122 74.5834 94.5122 50C94.5122 25.4166 74.5834 5.48779 50 5.48779C25.4166 5.48779 5.48779 25.4166 5.48779 50C5.48779 74.5834 25.4166 94.5122 50 94.5122Z" fill="white"/>
<path d="M45.9908 20.0092H45.8628V42.061H45.9908V20.0092Z" fill="#033C5A"/>
<path d="M27.058 32.122H24.6647V30.7226H28.5153V35.1951C27.5458 35.8049 26.3659 36.1646 24.9573 36.1646C22.0762 36.1646 19.6494 34.1189 19.6494 31.0427C19.6494 27.7927 22.2043 25.8903 25.0976 25.8903C26.0945 25.8903 26.9939 26.0305 27.8232 26.3506V27.7927H27.808C26.9512 27.4329 25.9665 27.2775 25.1098 27.2775C22.6189 27.2775 21.2744 28.8964 21.2744 31.0275C21.2744 33.1586 22.8384 34.7927 25.0397 34.7927C25.8262 34.7927 26.4634 34.6799 27.064 34.3903V32.1189H27.058V32.122Z" fill="#033C5A"/>
<path d="M37.2714 35.9024L34.8232 30.5305L32.4543 35.9024H32.0519L29.0366 26.186H30.5732L32.497 32.6524L34.7409 27.6707H35.0305L37.2897 32.625L39.2287 26.186H40.6799L37.6738 35.9024H37.2653H37.2714Z" fill="#033C5A"/>
<path d="M19.6494 38.8872V37.564H40.6799V38.8872H19.6494Z" fill="#AA9868"/>
<path d="M19.6494 24.5091V23.186H40.6799V24.5091H19.6494Z" fill="#AA9868"/>
<path d="M55.2104 24.8049C54.8842 24.3537 54.2958 24.1616 53.7897 24.1616C52.5031 24.1616 51.6311 25.1585 51.6311 26.4421C51.6311 27.7957 52.4604 28.7409 53.747 28.7409C54.4177 28.7409 54.9482 28.4512 55.2622 28.0183L56.1525 28.6463C55.6067 29.3323 54.7988 29.7378 53.7378 29.7378C51.7927 29.7378 50.4055 28.3872 50.4055 26.4451C50.4055 24.5031 51.8689 23.189 53.7866 23.189C54.5945 23.189 55.5549 23.4878 56.0519 24.1433L55.2043 24.814H55.2104V24.8079V24.8049Z" fill="#033C5A"/>
<path d="M59.2561 29.0396H59.2286C59.0183 29.4085 58.5152 29.6829 57.9176 29.6829C57.2378 29.6829 56.3323 29.3567 56.3323 28.3719C56.3323 27.1128 57.9176 26.9359 59.2408 26.9359V26.8292C59.2408 26.3109 58.8018 26.0518 58.2713 26.0518C57.8201 26.0518 57.3933 26.2622 57.1189 26.5335L56.5731 25.8902C57.0487 25.4512 57.7195 25.2195 58.3628 25.2195C59.878 25.2195 60.2469 26.1524 60.2469 26.9969V29.567H59.2622V29.0305H59.2561V29.0366V29.0396ZM59.2378 27.6494H59.003C58.3323 27.6494 57.3902 27.7286 57.3902 28.3567C57.3902 28.7652 57.7713 28.8872 58.128 28.8872C58.8506 28.8872 59.2378 28.4756 59.2378 27.8048V27.6555V27.6494Z" fill="#033C5A"/>
<path d="M61.4727 25.3506H62.4757V26.0305H62.4909C62.6769 25.6067 63.1769 25.2256 63.8019 25.2256C64.9056 25.2256 65.3599 26.0731 65.3599 26.9329V29.5731H64.305V27.2317C64.305 26.7286 64.1922 26.1067 63.5123 26.1067C62.8324 26.1067 62.5275 26.692 62.5275 27.253V29.5762H61.4727V25.3506Z" fill="#033C5A"/>
<path d="M69.4847 26.5244C69.3201 26.2896 68.9542 26.1128 68.6128 26.1128C67.8353 26.1128 67.4512 26.8079 67.4512 27.4664C67.4512 28.125 67.8475 28.8201 68.6524 28.8201C68.9786 28.8201 69.3384 28.6859 69.5427 28.439L70.2012 29.1097C69.8475 29.4908 69.2683 29.6981 68.6433 29.6981C67.3902 29.6981 66.3506 28.8689 66.3506 27.4603C66.3506 26.0518 67.375 25.2225 68.6158 25.2225C69.2317 25.2225 69.875 25.4695 70.2134 25.8811L69.4908 26.5122V26.5244H69.4847Z" fill="#033C5A"/>
<path d="M74.9237 27.7988H71.7103C71.753 28.3994 72.2987 28.8384 72.9145 28.8384C73.445 28.8384 73.7926 28.628 74.0334 28.2927L74.7408 28.8536C74.3292 29.4146 73.7286 29.7012 72.9237 29.7012C71.6219 29.7012 70.6523 28.8658 70.6523 27.4878C70.6523 26.1097 71.6097 25.2225 72.8901 25.2225C74.07 25.2225 74.9298 25.9878 74.9298 27.5091C74.9298 27.6067 74.9298 27.6951 74.9176 27.7927V27.7988H74.9237ZM73.8719 27.0427C73.8719 26.4969 73.5609 26.0183 72.8749 26.0183C72.2469 26.0183 71.7499 26.4512 71.7011 27.0427H73.8719Z" fill="#033C5A"/>
<path d="M75.9512 25.3506H76.9634V26.0579H76.9786C77.2103 25.5762 77.6585 25.2286 78.2103 25.2286C78.2896 25.2286 78.3963 25.2408 78.4664 25.2561V26.2256C78.3262 26.189 78.2347 26.1829 78.1402 26.1829C77.1859 26.1829 77.0061 27.0122 77.0061 27.3171V29.5823H75.9512V25.3567V25.3506Z" fill="#033C5A"/>
<path d="M55.2104 33.9543C54.8842 33.5031 54.2958 33.311 53.7897 33.311C52.5031 33.311 51.6311 34.308 51.6311 35.5915C51.6311 36.9451 52.4604 37.8903 53.747 37.8903C54.4177 37.8903 54.9482 37.6006 55.2622 37.1677L56.1525 37.7958C55.6067 38.4817 54.7988 38.8872 53.7378 38.8872C51.7927 38.8872 50.4055 37.5366 50.4055 35.5945C50.4055 33.6525 51.8689 32.3384 53.7866 32.3384C54.5945 32.3384 55.5549 32.6372 56.0519 33.2927L55.2043 33.9634H55.2104V33.9573V33.9543Z" fill="#033C5A"/>
<path d="M60.7074 36.9482H57.494C57.5366 37.5488 58.0824 37.9878 58.6982 37.9878C59.2287 37.9878 59.5763 37.7774 59.8171 37.4421L60.5245 38.003C60.1129 38.564 59.5123 38.8506 58.7074 38.8506C57.4055 38.8506 56.436 38.0152 56.436 36.6372C56.436 35.2591 57.3934 34.3719 58.6738 34.3719C59.8537 34.3719 60.7135 35.1372 60.7135 36.6585C60.7135 36.7561 60.7135 36.8445 60.7013 36.9421V36.9482H60.7074ZM59.6555 36.186C59.6555 35.6402 59.3446 35.1616 58.6586 35.1616C58.0305 35.1616 57.5336 35.5945 57.4848 36.186H59.6555Z" fill="#033C5A"/>
<path d="M61.7349 34.5H62.7379V35.1799H62.7532C62.9391 34.7561 63.4391 34.375 64.0641 34.375C65.1678 34.375 65.6221 35.2226 65.6221 36.0823V38.7226H64.5672V36.3811C64.5672 35.878 64.4544 35.2561 63.7745 35.2561C63.0946 35.2561 62.7897 35.8415 62.7897 36.4024V38.7256H61.7349V34.5Z" fill="#033C5A"/>
<path d="M66.2561 35.3445V34.497H66.9939V33.2714H68.0335V34.497H69.0884V35.3445H68.0335V37.311C68.0335 37.6921 68.1189 37.9634 68.5915 37.9634C68.7317 37.9634 68.9177 37.936 69.0427 37.8781L69.0793 38.7073C68.8933 38.7775 68.6128 38.8201 68.372 38.8201C67.2531 38.8201 66.9939 38.1342 66.9939 37.3201V35.3476H66.2561V35.3415V35.3445Z" fill="#033C5A"/>
<path d="M73.8841 36.9482H70.6707C70.7134 37.5488 71.2591 37.9878 71.875 37.9878C72.4055 37.9878 72.753 37.7774 72.9939 37.4421L73.7012 38.003C73.2896 38.564 72.689 38.8506 71.8841 38.8506C70.5823 38.8506 69.6128 38.0152 69.6128 36.6372C69.6128 35.2591 70.5701 34.3719 71.8506 34.3719C73.0305 34.3719 73.8902 35.1372 73.8902 36.6585C73.8902 36.7561 73.8902 36.8445 73.878 36.9421V36.9482H73.8841ZM72.8323 36.186C72.8323 35.6402 72.5213 35.1616 71.8354 35.1616C71.2073 35.1616 70.7104 35.5945 70.6616 36.186H72.8323Z" fill="#033C5A"/>
<path d="M74.9116 34.5H75.9238V35.2073H75.9391C76.1708 34.7256 76.6189 34.3781 77.1708 34.3781C77.25 34.3781 77.3567 34.3902 77.4269 34.4055V35.375C77.2866 35.3384 77.1952 35.3323 77.1006 35.3323C76.1464 35.3323 75.9665 36.1616 75.9665 36.4665V38.7317H74.9116V34.5061V34.5Z" fill="#033C5A"/>
<path d="M37.2987 46.4603V51.3018C37.2987 51.628 37.0091 51.875 36.6828 51.875H31.4725V73.9542C31.4359 74.2439 31.1828 74.4481 30.8993 74.4481H26.0578C25.7743 74.4481 25.5273 74.2439 25.4847 73.9542V51.875H20.2743C19.9481 51.875 19.6584 51.628 19.6584 51.3018V46.4603C19.6584 46.1341 19.942 45.8445 20.2743 45.8445H36.692C37.0182 45.8445 37.3078 46.1341 37.3078 46.4603H37.3017H37.2987Z" fill="#033C5A"/>
<path d="M58.4145 73.8781C58.4938 74.1677 58.131 74.4512 57.7987 74.4512H53.1219C52.7956 74.4512 52.506 74.1616 52.3841 73.8781L51.3993 70.5579H43.1462L42.1615 73.8781C42.0395 74.1677 41.7529 74.4512 41.4237 74.4512H36.7469C36.4206 74.4512 36.0517 74.1616 36.131 73.8781L44.256 46.3781V46.3354C44.4176 45.9665 44.5395 45.7622 44.8292 45.7622H49.7133C50.0029 45.7622 50.1645 45.9665 50.2865 46.3354V46.3781C52.9969 55.5335 55.7072 64.7226 58.4115 73.8781H58.4176H58.4145ZM49.7591 65.0153L47.2956 56.6006L44.7956 65.0153H49.7621H49.7591Z" fill="#033C5A"/>
<path d="M78.4511 60.0061L78.4084 60.0488H78.4511C78.4511 60.0488 78.4877 60.622 77.9999 61.1159L75.7011 63.4573C75.2072 63.9512 74.634 63.8689 74.634 63.8689H67.0395V73.8415C67.0395 74.125 66.756 74.4146 66.4237 74.4146H61.5822C61.256 74.4146 61.009 74.125 61.009 73.8415V46.2988C61.009 45.9726 61.256 45.7256 61.5822 45.7256H74.6371C74.6371 45.7256 75.2103 45.6463 75.7042 46.1372L78.0029 48.4787C78.4968 48.9726 78.4542 49.5457 78.4542 49.5457V60.0122V60.0061H78.4511ZM67.0365 57.8323H71.2682C71.2682 57.8323 71.4298 57.8689 71.5944 57.7104L72.2895 57.0518C72.4115 56.8902 72.4115 56.7256 72.4115 56.7256V52.8689C72.4115 52.8689 72.4115 52.7073 72.2895 52.5854L71.5944 51.8902C71.4328 51.7683 71.2682 51.7683 71.2682 51.7683H67.0365V57.8415V57.8354V57.8323Z" fill="#033C5A"/>
<path d="M81.6554 73.4512L79.2438 71.3994L81.0426 69.2897C81.3048 68.9848 81.1432 68.5061 80.7468 68.4208L71.1432 66.3628L69.9054 66.1006C69.8474 66.0884 69.7865 66.0854 69.7286 66.0884C69.3962 66.125 69.1676 66.4726 69.2956 66.811L69.7926 68.0976L73.3109 77.1433C73.4084 77.3842 73.6432 77.5061 73.8688 77.4817C73.9968 77.4665 74.1218 77.4055 74.2103 77.2988L76.009 75.189L78.4206 77.2409C78.57 77.3689 78.759 77.4177 78.9359 77.3964C79.1005 77.375 79.256 77.2988 79.3688 77.1647L81.7164 74.4055C81.9572 74.122 81.9267 73.6921 81.6401 73.4512H81.6523V73.4451L81.6554 73.4512Z" fill="#FFC82D"/>
</g>
<defs>
<clipPath id="clip0_973_2680">
<rect width="100" height="100" fill="white"/>
</clipPath>
</defs>
</svg>
