<?xml version="1.0" encoding="UTF-8"?><svg id="Layer_1" xmlns="http://www.w3.org/2000/svg" viewBox="0 0 1124 564.9"><defs><style>.cls-1{fill:#886361;}.cls-2{fill:#fff;}.cls-3{fill:#c7bca5;}.cls-4{fill:#0c4a66;}</style></defs><path class="cls-2" d="M640,244.5h425.08c4.43,0,8.03,3.6,8.03,8.03v213.67c0,4.43-3.6,8.04-8.04,8.04h-425.07c-4.43,0-8.03-3.6-8.03-8.03v-213.67c0-4.43,3.6-8.03,8.03-8.03Z"/><path class="cls-3" d="M1065.09,242.73h-425.1c-5.53,0-10.02,4.49-10.02,10.02v213.45c0,5.54,4.49,10.03,10.03,10.03h425.07c5.54,0,10.03-4.49,10.03-10.03v-213.45c0-5.53-4.49-10.02-10.02-10.02ZM745.37,257.41c0-5.29,4.29-9.58,9.58-9.58h195.17c5.29,0,9.58,4.29,9.58,9.58h0c0,5.29-4.29,9.58-9.58,9.58h-195.17c-5.29,0-9.58-4.29-9.58-9.58h0ZM670.96,257.41c0-3.27,2.65-5.92,5.92-5.92s5.92,2.65,5.92,5.92h0c0,3.27-2.65,5.92-5.92,5.92s-5.92-2.65-5.92-5.92h0ZM655.33,257.41c0-3.27,2.65-5.92,5.92-5.92h0c3.27,0,5.92,2.65,5.92,5.92h0c0,3.27-2.65,5.92-5.92,5.92h0c-3.27,0-5.92-2.65-5.92-5.92h0ZM639.71,257.41c0-3.27,2.65-5.92,5.92-5.92s5.92,2.65,5.92,5.92h0c0,3.27-2.65,5.92-5.92,5.92s-5.92-2.65-5.92-5.92h0ZM1071.11,466.2c0,3.33-2.71,6.03-6.03,6.03h-425.07c-3.33,0-6.03-2.71-6.03-6.03v-194.1h437.14v194.1Z"/><path class="cls-2" d="M349.46,15.56h425.08c4.43,0,8.03,3.6,8.03,8.03v168.95c0,4.43-3.6,8.04-8.04,8.04h-425.07c-4.43,0-8.03-3.6-8.03-8.03V23.6c0-4.43,3.6-8.03,8.03-8.03Z"/><path class="cls-3" d="M774.55,13.8h-425.1c-5.53,0-10.02,4.49-10.02,10.02v168.73c0,5.54,4.49,10.03,10.03,10.03h425.07c5.54,0,10.03-4.49,10.03-10.03V23.82c0-5.53-4.49-10.02-10.02-10.02ZM454.84,28.48c0-5.29,4.29-9.58,9.58-9.58h195.17c5.29,0,9.58,4.29,9.58,9.58h0c0,5.29-4.29,9.58-9.58,9.58h-195.17c-5.29,0-9.58-4.29-9.58-9.58h0ZM380.42,28.48c0-3.27,2.65-5.92,5.92-5.92s5.92,2.65,5.92,5.92h0c0,3.27-2.65,5.92-5.92,5.92s-5.92-2.65-5.92-5.92h0ZM364.8,28.48c0-3.27,2.65-5.92,5.92-5.92h0c3.27,0,5.92,2.65,5.92,5.92h0c0,3.27-2.65,5.92-5.92,5.92h0c-3.27,0-5.92-2.65-5.92-5.92h0ZM349.17,28.48c0-3.27,2.65-5.92,5.92-5.92s5.92,2.65,5.92,5.92h0c0,3.27-2.65,5.92-5.92,5.92s-5.92-2.65-5.92-5.92h0ZM780.57,192.55c0,3.33-2.71,6.03-6.03,6.03h-425.07c-3.33,0-6.03-2.71-6.03-6.03V43.16h437.14v149.38Z"/><path class="cls-2" d="M73.69,228.23h425.08c4.43,0,8.03,3.6,8.03,8.03v213.67c0,4.43-3.6,8.04-8.04,8.04H73.69c-4.43,0-8.03-3.6-8.03-8.03v-213.67c0-4.43,3.6-8.03,8.03-8.03Z"/><path class="cls-3" d="M498.78,226.47H73.67c-5.53,0-10.02,4.49-10.02,10.02v213.45c0,5.54,4.49,10.03,10.03,10.03h425.07c5.54,0,10.03-4.49,10.03-10.03v-213.45c0-5.53-4.49-10.02-10.02-10.02ZM179.06,241.15c0-5.29,4.29-9.58,9.58-9.58h195.17c5.29,0,9.58,4.29,9.58,9.58h0c0,5.29-4.29,9.58-9.58,9.58h-195.17c-5.29,0-9.58-4.29-9.58-9.58h0ZM104.64,241.15c0-3.27,2.65-5.92,5.92-5.92s5.92,2.65,5.92,5.92h0c0,3.27-2.65,5.92-5.92,5.92s-5.92-2.65-5.92-5.92h0ZM89.02,241.15c0-3.27,2.65-5.92,5.92-5.92h0c3.27,0,5.92,2.65,5.92,5.92h0c0,3.27-2.65,5.92-5.92,5.92h0c-3.27,0-5.92-2.65-5.92-5.92h0ZM73.4,241.15c0-3.27,2.65-5.92,5.92-5.92s5.92,2.65,5.92,5.92h0c0,3.27-2.65,5.92-5.92,5.92s-5.92-2.65-5.92-5.92h0ZM504.8,449.93c0,3.33-2.71,6.03-6.03,6.03H73.69c-3.33,0-6.03-2.71-6.03-6.03v-194.1h437.14v194.1Z"/><path class="cls-2" d="M624.01,228.23h425.08c4.43,0,8.03,3.6,8.03,8.03v213.67c0,4.43-3.6,8.04-8.04,8.04h-425.07c-4.43,0-8.03-3.6-8.03-8.03v-213.67c0-4.43,3.6-8.03,8.03-8.03Z"/><path class="cls-3" d="M1049.1,226.47h-425.1c-5.53,0-10.02,4.49-10.02,10.02v213.45c0,5.54,4.49,10.03,10.03,10.03h425.07c5.54,0,10.03-4.49,10.03-10.03v-213.45c0-5.53-4.49-10.02-10.02-10.02ZM729.39,241.15c0-5.29,4.29-9.58,9.58-9.58h195.17c5.29,0,9.58,4.29,9.58,9.58h0c0,5.29-4.29,9.58-9.58,9.58h-195.17c-5.29,0-9.58-4.29-9.58-9.58h0ZM654.97,241.15c0-3.27,2.65-5.92,5.92-5.92s5.92,2.65,5.92,5.92h0c0,3.27-2.65,5.92-5.92,5.92s-5.92-2.65-5.92-5.92h0ZM639.34,241.15c0-3.27,2.65-5.92,5.92-5.92h0c3.27,0,5.92,2.65,5.92,5.92h0c0,3.27-2.65,5.92-5.92,5.92h0c-3.27,0-5.92-2.65-5.92-5.92h0ZM623.72,241.15c0-3.27,2.65-5.92,5.92-5.92s5.92,2.65,5.92,5.92h0c0,3.27-2.65,5.92-5.92,5.92s-5.92-2.65-5.92-5.92h0ZM1055.12,449.93c0,3.33-2.71,6.03-6.03,6.03h-425.07c-3.33,0-6.03-2.71-6.03-6.03v-194.1h437.14v194.1Z"/><rect class="cls-3" x="382.44" y="126.94" width="171.18" height="47.01" rx="23.5" ry="23.5"/><rect class="cls-4" x="378.44" y="122.94" width="171.18" height="47.01" rx="23.5" ry="23.5"/><path class="cls-2" d="M399.05,140.11l2.7,11.66,3.24-11.66h2.1l3.25,11.68,2.7-11.68h2.13l-3.77,14.35h-2.04l-3.31-11.89-3.33,11.89h-2.04l-3.75-14.35h2.11Z"/><path class="cls-2" d="M422.84,144.29c.69.35,1.22.8,1.58,1.35.35.53.58,1.14.7,1.85.1.48.16,1.25.16,2.3h-7.61c.03,1.06.28,1.92.75,2.56.47.64,1.19.96,2.16.96.91,0,1.64-.3,2.18-.91.3-.35.52-.76.65-1.23h1.73c-.05.38-.2.81-.45,1.28s-.54.86-.86,1.16c-.53.52-1.19.87-1.97,1.05-.42.1-.9.16-1.42.16-1.29,0-2.39-.47-3.29-1.42-.9-.95-1.35-2.27-1.35-3.98s.45-3.04,1.36-4.09,2.09-1.57,3.55-1.57c.74,0,1.45.17,2.15.52ZM423.47,148.39c-.07-.76-.24-1.37-.49-1.83-.48-.85-1.27-1.27-2.39-1.27-.8,0-1.47.29-2.01.87s-.83,1.32-.86,2.22h5.76Z"/><path class="cls-2" d="M427.88,144.28c.36-.06.64-.26.82-.61s.28-.74.28-1.19c0-.05,0-.09,0-.12s-.01-.08-.02-.12h-1.07v-2.13h2.09v1.96c0,.83-.17,1.54-.52,2.12s-.87.92-1.57,1v-.92Z"/><path class="cls-2" d="M432,144h1.67v1.81c.14-.35.47-.78,1.01-1.28s1.15-.76,1.85-.76c.03,0,.09,0,.17,0s.21.02.4.04v1.86c-.1-.02-.2-.03-.29-.04s-.18,0-.29,0c-.89,0-1.57.29-2.04.85s-.71,1.23-.71,1.97v6.02h-1.76v-10.46Z"/><path class="cls-2" d="M445.07,144.29c.69.35,1.22.8,1.58,1.35.35.53.58,1.14.7,1.85.1.48.16,1.25.16,2.3h-7.61c.03,1.06.28,1.92.75,2.56.47.64,1.19.96,2.16.96.91,0,1.64-.3,2.18-.91.3-.35.52-.76.65-1.23h1.73c-.05.38-.2.81-.45,1.28s-.54.86-.86,1.16c-.53.52-1.19.87-1.97,1.05-.42.1-.9.16-1.42.16-1.29,0-2.39-.47-3.29-1.42-.9-.95-1.35-2.27-1.35-3.98s.45-3.04,1.36-4.09,2.09-1.57,3.55-1.57c.74,0,1.45.17,2.15.52ZM445.7,148.39c-.07-.76-.24-1.37-.49-1.83-.48-.85-1.27-1.27-2.39-1.27-.8,0-1.47.29-2.01.87s-.83,1.32-.86,2.22h5.76Z"/><path class="cls-2" d="M465.6,140.11v1.71h-4.83v12.64h-1.96v-12.64h-4.83v-1.71h11.63Z"/><path class="cls-2" d="M472.52,145.04c.92.9,1.39,2.22,1.39,3.96s-.41,3.08-1.22,4.18c-.81,1.1-2.08,1.65-3.79,1.65-1.43,0-2.56-.49-3.4-1.46-.84-.97-1.26-2.28-1.26-3.92,0-1.76.44-3.16,1.33-4.2.89-1.04,2.08-1.56,3.57-1.56,1.34,0,2.47.45,3.39,1.35ZM471.43,151.99c.43-.88.64-1.86.64-2.94,0-.97-.15-1.77-.46-2.38-.49-.96-1.33-1.44-2.53-1.44-1.06,0-1.83.41-2.32,1.23s-.72,1.81-.72,2.96.24,2.04.72,2.78,1.25,1.11,2.3,1.11c1.15,0,1.94-.44,2.37-1.32Z"/><path class="cls-2" d="M481.88,144.42c.33.23.67.56,1.01,1v-1.32h1.62v9.51c0,1.33-.19,2.38-.58,3.14-.73,1.42-2.1,2.13-4.12,2.13-1.12,0-2.07-.25-2.83-.76s-1.19-1.29-1.29-2.37h1.79c.08.47.25.83.5,1.08.4.39,1.02.59,1.86.59,1.34,0,2.22-.48,2.63-1.43.25-.56.36-1.56.34-3-.35.53-.77.93-1.26,1.19-.49.26-1.14.39-1.96.39-1.13,0-2.12-.4-2.96-1.21s-1.27-2.13-1.27-3.99c0-1.75.43-3.12,1.28-4.1.85-.98,1.88-1.47,3.09-1.47.82,0,1.53.2,2.14.61ZM482.09,146.3c-.53-.62-1.21-.94-2.03-.94-1.23,0-2.07.58-2.53,1.74-.24.62-.36,1.43-.36,2.43,0,1.18.24,2.08.71,2.69.48.62,1.12.92,1.92.92,1.26,0,2.14-.57,2.65-1.71.29-.64.43-1.4.43-2.26,0-1.3-.27-2.26-.8-2.88Z"/><path class="cls-2" d="M493.65,144.29c.69.35,1.22.8,1.58,1.35.35.53.58,1.14.7,1.85.1.48.16,1.25.16,2.3h-7.61c.03,1.06.28,1.92.75,2.56.47.64,1.19.96,2.16.96.91,0,1.64-.3,2.18-.91.3-.35.52-.76.65-1.23h1.73c-.05.38-.2.81-.45,1.28s-.54.86-.86,1.16c-.53.52-1.19.87-1.97,1.05-.42.1-.9.16-1.42.16-1.29,0-2.39-.47-3.29-1.42-.9-.95-1.35-2.27-1.35-3.98s.45-3.04,1.36-4.09,2.09-1.57,3.55-1.57c.74,0,1.45.17,2.15.52ZM494.27,148.39c-.07-.76-.24-1.37-.49-1.83-.48-.85-1.27-1.27-2.39-1.27-.8,0-1.47.29-2.01.87s-.83,1.32-.86,2.22h5.76Z"/><path class="cls-2" d="M498.66,141.08h1.78v2.92h1.67v1.44h-1.67v6.83c0,.36.12.61.37.73.14.07.36.11.68.11.08,0,.18,0,.27,0,.1,0,.21-.01.34-.03v1.4c-.2.06-.41.1-.63.13s-.45.04-.71.04c-.82,0-1.38-.21-1.67-.63s-.44-.96-.44-1.64v-6.92h-1.42v-1.44h1.42v-2.92Z"/><path class="cls-2" d="M503.86,140.06h1.76v5.35c.42-.53.79-.9,1.12-1.11.57-.37,1.27-.56,2.12-.56,1.52,0,2.55.53,3.09,1.59.29.58.44,1.38.44,2.41v6.71h-1.81v-6.59c0-.77-.1-1.33-.29-1.69-.32-.57-.92-.86-1.8-.86-.73,0-1.39.25-1.98.75s-.89,1.45-.89,2.84v5.55h-1.76v-14.39Z"/><path class="cls-2" d="M521.45,144.29c.69.35,1.22.8,1.58,1.35.35.53.58,1.14.7,1.85.1.48.16,1.25.16,2.3h-7.61c.03,1.06.28,1.92.75,2.56.47.64,1.19.96,2.16.96.91,0,1.64-.3,2.18-.91.3-.35.52-.76.65-1.23h1.73c-.05.38-.2.81-.45,1.28s-.54.86-.86,1.16c-.53.52-1.19.87-1.97,1.05-.42.1-.9.16-1.42.16-1.29,0-2.39-.47-3.29-1.42-.9-.95-1.35-2.27-1.35-3.98s.45-3.04,1.36-4.09,2.09-1.57,3.55-1.57c.74,0,1.45.17,2.15.52ZM522.08,148.39c-.07-.76-.24-1.37-.49-1.83-.48-.85-1.27-1.27-2.39-1.27-.8,0-1.47.29-2.01.87s-.83,1.32-.86,2.22h5.76Z"/><path class="cls-2" d="M526.16,144h1.67v1.81c.14-.35.47-.78,1.01-1.28s1.15-.76,1.85-.76c.03,0,.09,0,.17,0s.21.02.4.04v1.86c-.1-.02-.2-.03-.29-.04s-.18,0-.29,0c-.89,0-1.57.29-2.04.85s-.71,1.23-.71,1.97v6.02h-1.76v-10.46Z"/><rect class="cls-3" x="580.29" y="126.94" width="171.18" height="47.01" rx="23.5" ry="23.5"/><rect class="cls-4" x="576.29" y="122.94" width="171.18" height="47.01" rx="23.5" ry="23.5"/><path class="cls-2" d="M612.28,140.11l2.7,11.66,3.24-11.66h2.1l3.25,11.68,2.7-11.68h2.13l-3.77,14.35h-2.04l-3.31-11.89-3.33,11.89h-2.04l-3.75-14.35h2.11Z"/><path class="cls-2" d="M636.08,144.29c.69.35,1.22.8,1.58,1.35.35.53.58,1.14.7,1.85.1.48.16,1.25.16,2.3h-7.61c.03,1.06.28,1.92.75,2.56.46.64,1.19.96,2.16.96.91,0,1.64-.3,2.18-.91.3-.35.52-.76.65-1.23h1.73c-.05.38-.2.81-.45,1.28-.26.47-.54.86-.86,1.16-.53.52-1.19.87-1.97,1.05-.42.1-.9.16-1.42.16-1.29,0-2.39-.47-3.29-1.42s-1.35-2.27-1.35-3.98.45-3.04,1.36-4.09c.91-1.05,2.09-1.57,3.55-1.57.74,0,1.45.17,2.14.52ZM636.71,148.39c-.07-.76-.24-1.37-.49-1.83-.48-.85-1.28-1.27-2.39-1.27-.8,0-1.47.29-2.01.87-.54.58-.83,1.32-.86,2.22h5.76Z"/><path class="cls-2" d="M641.12,144.28c.36-.06.64-.26.82-.61.19-.34.28-.74.28-1.19,0-.05,0-.09,0-.12,0-.04-.01-.08-.02-.12h-1.07v-2.13h2.09v1.96c0,.83-.17,1.54-.52,2.12-.35.58-.87.92-1.57,1v-.92Z"/><path class="cls-2" d="M645.24,144h1.67v1.81c.14-.35.47-.78,1.01-1.28.53-.5,1.15-.76,1.85-.76.03,0,.09,0,.17,0s.21.02.4.04v1.86c-.1-.02-.2-.03-.29-.04s-.18,0-.29,0c-.89,0-1.57.29-2.04.85-.48.57-.71,1.23-.71,1.97v6.02h-1.76v-10.46Z"/><path class="cls-2" d="M658.31,144.29c.69.35,1.22.8,1.58,1.35.35.53.58,1.14.7,1.85.1.48.16,1.25.16,2.3h-7.61c.03,1.06.28,1.92.75,2.56.46.64,1.19.96,2.16.96.91,0,1.64-.3,2.18-.91.3-.35.52-.76.65-1.23h1.73c-.05.38-.2.81-.45,1.28-.26.47-.54.86-.86,1.16-.53.52-1.19.87-1.97,1.05-.42.1-.9.16-1.42.16-1.29,0-2.39-.47-3.29-1.42s-1.35-2.27-1.35-3.98.45-3.04,1.36-4.09c.91-1.05,2.09-1.57,3.55-1.57.74,0,1.45.17,2.14.52ZM658.94,148.39c-.07-.76-.24-1.37-.49-1.83-.48-.85-1.28-1.27-2.39-1.27-.8,0-1.47.29-2.01.87-.54.58-.83,1.32-.86,2.22h5.76Z"/><path class="cls-2" d="M671.84,140.11h2.2l5.21,14.35h-2.13l-1.46-4.3h-5.67l-1.55,4.3h-1.99l5.4-14.35ZM675.03,148.58l-2.18-6.34-2.31,6.34h4.49Z"/><path class="cls-2" d="M680.63,144.05h1.72v1.39c.35-.48.74-.84,1.16-1.1.59-.39,1.29-.59,2.09-.59,1.19,0,2.2.45,3.03,1.36.83.91,1.24,2.21,1.24,3.89,0,2.28-.6,3.91-1.79,4.88-.76.62-1.64.93-2.65.93-.79,0-1.45-.17-1.99-.52-.31-.2-.66-.53-1.05-1.01v5.34h-1.76v-14.58ZM687.24,152.25c.54-.69.82-1.71.82-3.08,0-.83-.12-1.55-.36-2.15-.46-1.15-1.29-1.73-2.51-1.73s-2.06.61-2.51,1.83c-.24.65-.36,1.48-.36,2.48,0,.81.12,1.49.36,2.06.46,1.08,1.29,1.62,2.51,1.62.82,0,1.51-.34,2.05-1.03Z"/><path class="cls-2" d="M697.5,148.13c.4-.05.67-.22.81-.51.08-.16.12-.38.12-.68,0-.6-.21-1.04-.64-1.31-.43-.27-1.04-.41-1.83-.41-.92,0-1.57.25-1.95.75-.21.27-.35.68-.42,1.23h-1.64c.03-1.29.45-2.19,1.25-2.7.8-.51,1.73-.76,2.79-.76,1.23,0,2.23.23,2.99.7.76.47,1.14,1.2,1.14,2.19v6.03c0,.18.04.33.11.44.07.11.23.17.47.17.08,0,.17,0,.26-.01s.2-.02.31-.04v1.3c-.27.08-.48.13-.62.15-.14.02-.34.03-.59.03-.61,0-1.04-.21-1.32-.64-.14-.23-.24-.55-.3-.97-.36.47-.87.88-1.54,1.22-.67.34-1.41.52-2.22.52-.97,0-1.76-.29-2.38-.88-.62-.59-.92-1.32-.92-2.21,0-.97.3-1.72.91-2.25s1.4-.86,2.38-.99l2.8-.35ZM693.8,152.88c.37.29.81.44,1.32.44.62,0,1.22-.14,1.8-.43.98-.47,1.46-1.25,1.46-2.33v-1.41c-.21.14-.49.25-.83.34-.34.09-.67.16-.99.2l-1.06.14c-.64.08-1.12.22-1.44.4-.54.31-.82.79-.82,1.46,0,.51.19.91.56,1.2Z"/><path class="cls-2" d="M703.07,144h1.67v1.81c.14-.35.47-.78,1.01-1.28.53-.5,1.15-.76,1.85-.76.03,0,.09,0,.17,0s.21.02.4.04v1.86c-.1-.02-.2-.03-.29-.04s-.18,0-.29,0c-.89,0-1.57.29-2.04.85-.48.57-.71,1.23-.71,1.97v6.02h-1.76v-10.46Z"/><path class="cls-2" d="M710.03,141.08h1.78v2.92h1.67v1.44h-1.67v6.83c0,.36.12.61.37.73.14.07.36.11.68.11.08,0,.18,0,.27,0,.1,0,.21-.01.34-.03v1.4c-.2.06-.41.1-.63.13-.22.03-.45.04-.71.04-.82,0-1.38-.21-1.67-.63s-.44-.96-.44-1.64v-6.92h-1.42v-1.44h1.42v-2.92Z"/><path class="cls-4" d="M513.82,83.38c.07,1.38.39,2.51.94,3.37,1.06,1.62,2.92,2.42,5.58,2.42,1.19,0,2.28-.18,3.26-.53,1.9-.69,2.85-1.92,2.85-3.69,0-1.33-.4-2.27-1.21-2.84-.82-.55-2.09-1.04-3.83-1.44l-3.2-.75c-2.09-.49-3.57-1.02-4.44-1.61-1.5-1.02-2.25-2.54-2.25-4.57,0-2.19.74-3.99,2.21-5.4,1.48-1.41,3.56-2.11,6.27-2.11,2.49,0,4.6.62,6.34,1.85,1.74,1.23,2.61,3.21,2.61,5.92h-3.1c-.16-1.31-.5-2.31-1.02-3-.97-1.27-2.61-1.91-4.92-1.91-1.87,0-3.21.41-4.03,1.23-.82.82-1.23,1.77-1.23,2.86,0,1.2.48,2.07,1.45,2.62.63.35,2.06.8,4.29,1.33l3.31.78c1.6.38,2.83.89,3.7,1.54,1.5,1.14,2.25,2.79,2.25,4.96,0,2.7-.96,4.63-2.87,5.79s-4.14,1.74-6.68,1.74c-2.96,0-5.27-.77-6.95-2.32-1.67-1.54-2.49-3.62-2.46-6.26h3.1Z"/><path class="cls-4" d="M533.94,66.87h3.04v3.39h-3.04v-3.39ZM533.94,73.56h3.04v17.7h-3.04v-17.7Z"/><path class="cls-4" d="M551.38,74.19c.56.39,1.14.95,1.72,1.69v-2.24h2.76v16.17c0,2.26-.33,4.04-.99,5.35-1.24,2.41-3.57,3.62-7,3.62-1.91,0-3.51-.43-4.81-1.29-1.3-.86-2.03-2.2-2.18-4.03h3.04c.14.8.43,1.41.86,1.84.67.66,1.73,1,3.17,1,2.28,0,3.77-.81,4.47-2.42.42-.95.61-2.65.58-5.1-.6.91-1.31,1.58-2.15,2.03-.84.44-1.95.66-3.32.66-1.92,0-3.6-.68-5.04-2.05-1.44-1.37-2.16-3.63-2.16-6.78,0-2.98.72-5.3,2.17-6.97,1.45-1.67,3.2-2.51,5.25-2.51,1.39,0,2.6.34,3.64,1.03ZM551.75,77.39c-.9-1.06-2.05-1.59-3.45-1.59-2.09,0-3.52.99-4.29,2.96-.41,1.05-.61,2.43-.61,4.13,0,2,.4,3.53,1.21,4.57.81,1.04,1.9,1.57,3.26,1.57,2.14,0,3.64-.97,4.51-2.91.48-1.1.73-2.37.73-3.83,0-2.2-.45-3.83-1.35-4.9Z"/><path class="cls-4" d="M560.41,73.47h2.84v2.52c.84-1.04,1.73-1.79,2.67-2.24s1.99-.68,3.14-.68c2.52,0,4.23.88,5.11,2.64.49.96.73,2.34.73,4.13v11.41h-3.04v-11.21c0-1.08-.16-1.96-.48-2.62-.53-1.11-1.49-1.66-2.89-1.66-.71,0-1.29.07-1.74.22-.82.24-1.54.73-2.16,1.46-.5.59-.82,1.19-.97,1.82-.15.62-.22,1.52-.22,2.68v9.31h-2.99v-17.78Z"/><path class="cls-4" d="M589.91,66.87h3.34v24.39h-3.34v-24.39Z"/><path class="cls-4" d="M598.21,73.47h2.84v2.52c.84-1.04,1.73-1.79,2.67-2.24s1.99-.68,3.14-.68c2.52,0,4.23.88,5.11,2.64.49.96.73,2.34.73,4.13v11.41h-3.04v-11.21c0-1.08-.16-1.96-.48-2.62-.53-1.11-1.49-1.66-2.89-1.66-.71,0-1.29.07-1.74.22-.82.24-1.54.73-2.16,1.46-.5.59-.82,1.19-.97,1.82-.15.62-.22,1.52-.22,2.68v9.31h-2.99v-17.78Z"/><rect class="cls-3" x="205.05" y="395.03" width="171.18" height="47.01" rx="23.5" ry="23.5"/><rect class="cls-4" x="201.05" y="391.03" width="171.18" height="47.01" rx="23.5" ry="23.5"/><path class="cls-2" d="M258.28,409.24c.99.96,1.54,2.04,1.65,3.26h-1.89c-.21-.92-.63-1.66-1.26-2.2s-1.51-.81-2.65-.81c-1.39,0-2.51.5-3.36,1.49-.85.99-1.28,2.52-1.28,4.57,0,1.68.39,3.04,1.16,4.09.77,1.05,1.92,1.57,3.45,1.57,1.41,0,2.48-.55,3.21-1.65.39-.58.68-1.34.87-2.29h1.89c-.17,1.51-.72,2.78-1.66,3.8-1.13,1.23-2.65,1.85-4.56,1.85-1.65,0-3.03-.5-4.15-1.51-1.47-1.33-2.21-3.4-2.21-6.19,0-2.12.55-3.85,1.66-5.21,1.2-1.47,2.85-2.21,4.95-2.21,1.79,0,3.19.48,4.18,1.44Z"/><path class="cls-2" d="M269.92,413.13c.92.9,1.39,2.22,1.39,3.96s-.41,3.08-1.22,4.18c-.81,1.1-2.08,1.65-3.79,1.65-1.43,0-2.56-.49-3.4-1.46-.84-.97-1.26-2.28-1.26-3.92,0-1.76.44-3.16,1.33-4.2.89-1.04,2.08-1.56,3.57-1.56,1.34,0,2.47.45,3.39,1.35ZM268.82,420.08c.43-.88.64-1.86.64-2.94,0-.97-.15-1.77-.46-2.38-.49-.96-1.33-1.44-2.53-1.44-1.06,0-1.83.41-2.32,1.23s-.72,1.81-.72,2.96.24,2.04.72,2.78,1.25,1.11,2.3,1.11c1.15,0,1.94-.44,2.37-1.32Z"/><path class="cls-2" d="M273.46,412.08h1.67v1.48c.49-.61,1.02-1.05,1.57-1.32s1.17-.4,1.85-.4c1.48,0,2.49.52,3.01,1.55.29.57.43,1.38.43,2.43v6.71h-1.79v-6.59c0-.64-.09-1.15-.28-1.54-.31-.65-.88-.98-1.7-.98-.42,0-.76.04-1.03.13-.48.14-.9.43-1.27.86-.29.34-.48.7-.57,1.07s-.13.89-.13,1.58v5.48h-1.76v-10.46Z"/><path class="cls-2" d="M284.94,409.16h1.78v2.92h1.67v1.44h-1.67v6.83c0,.36.12.61.37.73.14.07.36.11.68.11.08,0,.18,0,.27,0,.1,0,.21-.01.34-.03v1.4c-.2.06-.41.1-.63.13s-.45.04-.71.04c-.82,0-1.38-.21-1.67-.63s-.44-.96-.44-1.64v-6.92h-1.42v-1.44h1.42v-2.92Z"/><path class="cls-2" d="M290.14,408.2h1.79v1.99h-1.79v-1.99ZM290.14,412.13h1.79v10.41h-1.79v-10.41Z"/><path class="cls-2" d="M294.58,412.08h1.67v1.48c.49-.61,1.02-1.05,1.57-1.32s1.17-.4,1.85-.4c1.48,0,2.49.52,3.01,1.55.29.57.43,1.38.43,2.43v6.71h-1.79v-6.59c0-.64-.09-1.15-.28-1.54-.31-.65-.88-.98-1.7-.98-.42,0-.76.04-1.03.13-.48.14-.9.43-1.27.86-.29.34-.48.7-.57,1.07s-.13.89-.13,1.58v5.48h-1.76v-10.46Z"/><path class="cls-2" d="M307.46,412.08v6.94c0,.53.08.97.25,1.31.3.62.87.94,1.7.94,1.19,0,2-.55,2.43-1.64.23-.59.35-1.39.35-2.41v-5.14h1.76v10.46h-1.66l.02-1.54c-.22.4-.5.73-.83,1.01-.66.55-1.46.82-2.4.82-1.46,0-2.46-.5-2.99-1.49-.29-.53-.43-1.25-.43-2.14v-7.11h1.8Z"/><path class="cls-2" d="M323.29,412.37c.69.35,1.22.8,1.58,1.35.35.53.58,1.14.7,1.85.1.48.16,1.25.16,2.3h-7.61c.03,1.06.28,1.92.75,2.56.47.64,1.19.96,2.16.96.91,0,1.64-.3,2.18-.91.3-.35.52-.76.65-1.23h1.73c-.05.38-.2.81-.45,1.28s-.54.86-.86,1.16c-.53.52-1.19.87-1.97,1.05-.42.1-.9.16-1.42.16-1.29,0-2.39-.47-3.29-1.42-.9-.95-1.35-2.27-1.35-3.98s.45-3.04,1.36-4.09,2.09-1.57,3.55-1.57c.74,0,1.45.17,2.15.52ZM323.92,416.48c-.07-.76-.24-1.37-.49-1.83-.48-.85-1.27-1.27-2.39-1.27-.8,0-1.47.29-2.01.87s-.83,1.32-.86,2.22h5.76Z"/><path class="cls-4" d="M86.71,275.85h8.99c1.78,0,3.21.5,4.3,1.51s1.64,2.42,1.64,4.25c0,1.57-.49,2.93-1.46,4.09-.97,1.16-2.47,1.74-4.48,1.74h-6.27v8.49h-2.72v-20.08ZM97.26,278.62c-.6-.28-1.42-.42-2.46-.42h-5.38v6.96h5.38c1.21,0,2.2-.26,2.95-.78.76-.52,1.13-1.44,1.13-2.75,0-1.48-.54-2.48-1.63-3.01Z"/><path class="cls-4" d="M112.65,287.08c.57-.07.94-.31,1.13-.71.11-.22.16-.54.16-.95,0-.84-.3-1.45-.89-1.83-.6-.38-1.45-.57-2.56-.57-1.28,0-2.19.35-2.73,1.04-.3.38-.5.96-.59,1.72h-2.3c.05-1.81.63-3.07,1.75-3.78,1.12-.71,2.43-1.06,3.91-1.06,1.72,0,3.12.33,4.19.98,1.06.66,1.6,1.68,1.6,3.06v8.44c0,.25.05.46.16.61.1.16.33.23.66.23.11,0,.23,0,.37-.02s.28-.03.44-.06v1.82c-.38.11-.67.18-.88.21-.2.03-.47.04-.82.04-.85,0-1.46-.3-1.85-.9-.2-.32-.34-.77-.42-1.35-.5.66-1.22,1.23-2.16,1.71-.94.48-1.97.72-3.1.72-1.36,0-2.47-.41-3.33-1.24-.86-.82-1.29-1.86-1.29-3.09,0-1.36.42-2.41,1.27-3.15.85-.75,1.96-1.21,3.34-1.38l3.92-.49ZM107.46,293.73c.52.41,1.13.61,1.85.61.87,0,1.7-.2,2.52-.6,1.37-.66,2.05-1.75,2.05-3.26v-1.98c-.3.19-.69.35-1.16.48-.47.13-.94.22-1.39.27l-1.49.19c-.89.12-1.56.31-2.01.56-.76.43-1.14,1.11-1.14,2.05,0,.71.26,1.27.78,1.68Z"/><path class="cls-4" d="M120.44,281.3h2.34v2.53c.19-.49.66-1.09,1.41-1.8.75-.71,1.61-1.06,2.58-1.06.05,0,.12,0,.23.01s.3.03.56.05v2.6c-.15-.03-.28-.05-.4-.05s-.26-.01-.4-.01c-1.24,0-2.19.4-2.86,1.2-.67.8-1,1.72-1,2.75v8.42h-2.46v-14.64Z"/><path class="cls-4" d="M130.19,277.21h2.49v4.09h2.34v2.01h-2.34v9.56c0,.51.17.85.52,1.03.19.1.51.15.96.15.12,0,.25,0,.38,0s.3-.02.48-.05v1.96c-.28.08-.58.14-.88.18-.31.04-.64.05-.99.05-1.15,0-1.93-.29-2.34-.88s-.62-1.35-.62-2.29v-9.69h-1.98v-2.01h1.98v-4.09Z"/><path class="cls-4" d="M137.47,275.85h2.5v2.79h-2.5v-2.79ZM137.47,281.36h2.5v14.57h-2.5v-14.57Z"/><path class="cls-4" d="M153.37,282.08c1.03.8,1.66,2.18,1.87,4.14h-2.39c-.15-.9-.48-1.65-1-2.25s-1.35-.9-2.5-.9c-1.57,0-2.69.76-3.36,2.29-.44.99-.66,2.22-.66,3.67s.31,2.7.93,3.7c.62,1,1.59,1.5,2.93,1.5,1.02,0,1.83-.31,2.43-.93.6-.62,1.01-1.47,1.24-2.55h2.39c-.27,1.94-.96,3.36-2.05,4.26s-2.49,1.35-4.2,1.35c-1.91,0-3.44-.7-4.58-2.1-1.14-1.4-1.71-3.15-1.71-5.24,0-2.57.62-4.57,1.87-6,1.25-1.43,2.84-2.15,4.77-2.15,1.65,0,2.99.4,4.03,1.2Z"/><path class="cls-4" d="M157.69,275.85h2.5v2.79h-2.5v-2.79ZM157.69,281.36h2.5v14.57h-2.5v-14.57Z"/><path class="cls-4" d="M163.71,281.36h2.41v1.94c.49-.67,1.03-1.18,1.62-1.54.83-.55,1.81-.82,2.93-.82,1.66,0,3.08.64,4.24,1.91,1.16,1.27,1.74,3.09,1.74,5.45,0,3.19-.84,5.47-2.51,6.84-1.06.87-2.3,1.3-3.71,1.3-1.11,0-2.04-.24-2.79-.72-.44-.27-.93-.74-1.47-1.41v7.48h-2.46v-20.41ZM172.97,292.84c.76-.96,1.15-2.4,1.15-4.31,0-1.17-.17-2.17-.51-3.01-.64-1.61-1.81-2.42-3.51-2.42s-2.88.85-3.51,2.56c-.34.91-.51,2.07-.51,3.47,0,1.13.17,2.09.51,2.88.64,1.51,1.81,2.27,3.51,2.27,1.15,0,2.11-.48,2.87-1.44Z"/><path class="cls-4" d="M187.33,287.08c.57-.07.94-.31,1.13-.71.11-.22.16-.54.16-.95,0-.84-.3-1.45-.89-1.83-.6-.38-1.45-.57-2.56-.57-1.28,0-2.19.35-2.73,1.04-.3.38-.5.96-.59,1.72h-2.3c.05-1.81.63-3.07,1.75-3.78,1.12-.71,2.43-1.06,3.91-1.06,1.72,0,3.12.33,4.19.98,1.06.66,1.6,1.68,1.6,3.06v8.44c0,.25.05.46.16.61.1.16.33.23.66.23.11,0,.23,0,.37-.02s.28-.03.44-.06v1.82c-.38.11-.67.18-.88.21-.2.03-.47.04-.82.04-.85,0-1.46-.3-1.85-.9-.2-.32-.34-.77-.42-1.35-.5.66-1.22,1.23-2.16,1.71-.94.48-1.97.72-3.1.72-1.36,0-2.47-.41-3.33-1.24-.86-.82-1.29-1.86-1.29-3.09,0-1.36.42-2.41,1.27-3.15.85-.75,1.96-1.21,3.34-1.38l3.92-.49ZM182.15,293.73c.52.41,1.13.61,1.85.61.87,0,1.7-.2,2.52-.6,1.37-.66,2.05-1.75,2.05-3.26v-1.98c-.3.19-.69.35-1.16.48-.47.13-.94.22-1.39.27l-1.49.19c-.89.12-1.56.31-2.01.56-.76.43-1.14,1.11-1.14,2.05,0,.71.26,1.27.78,1.68Z"/><path class="cls-4" d="M195.06,281.3h2.34v2.08c.69-.86,1.43-1.47,2.2-1.85.77-.37,1.64-.56,2.58-.56,2.08,0,3.48.72,4.21,2.17.4.79.6,1.93.6,3.4v9.39h-2.5v-9.23c0-.89-.13-1.61-.4-2.16-.44-.91-1.23-1.37-2.38-1.37-.58,0-1.06.06-1.44.18-.67.2-1.27.6-1.78,1.2-.41.48-.68.98-.8,1.5s-.18,1.25-.18,2.21v7.67h-2.46v-14.64Z"/><path class="cls-4" d="M211.12,277.21h2.49v4.09h2.34v2.01h-2.34v9.56c0,.51.17.85.52,1.03.19.1.51.15.96.15.12,0,.25,0,.38,0s.3-.02.48-.05v1.96c-.28.08-.58.14-.88.18-.31.04-.64.05-.99.05-1.15,0-1.93-.29-2.34-.88s-.62-1.35-.62-2.29v-9.69h-1.98v-2.01h1.98v-4.09Z"/><path class="cls-4" d="M227.06,282.08v-1.89c1.78-.17,3.02-.46,3.72-.87.7-.41,1.23-1.37,1.57-2.88h1.94v19.5h-2.62v-13.86h-4.61Z"/><path d="M89.72,318.27h2.2l5.21,14.35h-2.13l-1.46-4.3h-5.67l-1.55,4.3h-1.99l5.4-14.35ZM92.91,326.74l-2.18-6.34-2.31,6.34h4.49Z"/><path d="M105.56,322.71c.74.57,1.18,1.56,1.33,2.96h-1.71c-.1-.64-.34-1.18-.71-1.61s-.97-.64-1.79-.64c-1.12,0-1.92.55-2.4,1.64-.31.71-.47,1.58-.47,2.62s.22,1.93.66,2.64c.44.72,1.14,1.07,2.09,1.07.73,0,1.31-.22,1.73-.67s.72-1.05.88-1.82h1.71c-.2,1.39-.68,2.4-1.46,3.04s-1.78.96-3,.96c-1.37,0-2.46-.5-3.27-1.5s-1.22-2.25-1.22-3.75c0-1.84.45-3.26,1.34-4.29s2.03-1.53,3.41-1.53c1.18,0,2.14.29,2.88.86Z"/><path d="M115.56,322.71c.74.57,1.18,1.56,1.33,2.96h-1.71c-.1-.64-.34-1.18-.71-1.61s-.97-.64-1.79-.64c-1.12,0-1.92.55-2.4,1.64-.31.71-.47,1.58-.47,2.62s.22,1.93.66,2.64c.44.72,1.14,1.07,2.09,1.07.73,0,1.31-.22,1.73-.67s.72-1.05.88-1.82h1.71c-.2,1.39-.68,2.4-1.46,3.04s-1.78.96-3,.96c-1.37,0-2.46-.5-3.27-1.5s-1.22-2.25-1.22-3.75c0-1.84.45-3.26,1.34-4.29s2.03-1.53,3.41-1.53c1.18,0,2.14.29,2.88.86Z"/><path d="M125.11,322.44c.69.35,1.22.8,1.58,1.35.35.53.58,1.14.7,1.85.1.48.16,1.25.16,2.3h-7.61c.03,1.06.28,1.92.75,2.56.47.64,1.19.96,2.16.96.91,0,1.64-.3,2.18-.91.3-.35.52-.76.65-1.23h1.73c-.05.38-.2.81-.45,1.28s-.54.86-.86,1.16c-.53.52-1.19.87-1.97,1.05-.42.1-.9.16-1.42.16-1.29,0-2.39-.47-3.29-1.42-.9-.95-1.35-2.27-1.35-3.98s.45-3.04,1.36-4.09,2.09-1.57,3.55-1.57c.74,0,1.45.17,2.15.52ZM125.74,326.55c-.07-.76-.24-1.37-.49-1.83-.48-.85-1.27-1.27-2.39-1.27-.8,0-1.47.29-2.01.87s-.83,1.32-.86,2.22h5.76Z"/><path d="M130.82,329.33c.05.59.2,1.04.45,1.35.45.57,1.24.85,2.35.85.66,0,1.25-.14,1.75-.42.51-.28.76-.72.76-1.31,0-.45-.2-.79-.61-1.03-.26-.14-.77-.31-1.53-.5l-1.42-.35c-.91-.22-1.57-.47-2-.74-.77-.48-1.15-1.13-1.15-1.97,0-.99.36-1.79,1.08-2.4.72-.61,1.69-.92,2.91-.92,1.6,0,2.75.46,3.45,1.39.44.59.66,1.22.64,1.89h-1.66c-.03-.39-.18-.75-.43-1.08-.41-.46-1.13-.69-2.15-.69-.68,0-1.19.13-1.54.38-.35.25-.52.59-.52,1,0,.45.23.82.69,1.09.27.16.66.3,1.17.43l1.18.28c1.29.31,2.15.6,2.59.89.68.45,1.03,1.16,1.03,2.12s-.36,1.74-1.07,2.41-1.8,1.02-3.27,1.02c-1.58,0-2.69-.35-3.35-1.06-.66-.71-1.01-1.58-1.05-2.62h1.69Z"/><path d="M140.82,329.33c.05.59.2,1.04.45,1.35.45.57,1.24.85,2.35.85.66,0,1.25-.14,1.75-.42.51-.28.76-.72.76-1.31,0-.45-.2-.79-.61-1.03-.26-.14-.77-.31-1.53-.5l-1.42-.35c-.91-.22-1.57-.47-2-.74-.77-.48-1.15-1.13-1.15-1.97,0-.99.36-1.79,1.08-2.4.72-.61,1.69-.92,2.91-.92,1.6,0,2.75.46,3.45,1.39.44.59.66,1.22.64,1.89h-1.66c-.03-.39-.18-.75-.43-1.08-.41-.46-1.13-.69-2.15-.69-.68,0-1.19.13-1.54.38-.35.25-.52.59-.52,1,0,.45.23.82.69,1.09.27.16.66.3,1.17.43l1.18.28c1.29.31,2.15.6,2.59.89.68.45,1.03,1.16,1.03,2.12s-.36,1.74-1.07,2.41-1.8,1.02-3.27,1.02c-1.58,0-2.69-.35-3.35-1.06-.66-.71-1.01-1.58-1.05-2.62h1.69Z"/><path d="M165.71,319.31c.99.96,1.54,2.04,1.65,3.26h-1.89c-.21-.92-.63-1.66-1.26-2.2s-1.51-.81-2.65-.81c-1.39,0-2.51.5-3.36,1.49-.85.99-1.28,2.52-1.28,4.57,0,1.68.39,3.04,1.16,4.09.77,1.05,1.92,1.57,3.45,1.57,1.41,0,2.48-.55,3.21-1.65.39-.58.68-1.34.87-2.29h1.89c-.17,1.51-.72,2.78-1.66,3.8-1.13,1.23-2.65,1.85-4.56,1.85-1.65,0-3.03-.5-4.15-1.51-1.47-1.33-2.21-3.4-2.21-6.19,0-2.12.55-3.85,1.66-5.21,1.2-1.47,2.85-2.21,4.95-2.21,1.79,0,3.19.48,4.18,1.44Z"/><path d="M177.35,323.2c.92.9,1.39,2.22,1.39,3.96s-.41,3.08-1.22,4.18c-.81,1.1-2.08,1.65-3.79,1.65-1.43,0-2.56-.49-3.4-1.46-.84-.97-1.26-2.28-1.26-3.92,0-1.76.44-3.16,1.33-4.2.89-1.04,2.08-1.56,3.57-1.56,1.34,0,2.47.45,3.39,1.35ZM176.26,330.15c.43-.88.64-1.86.64-2.94,0-.97-.15-1.77-.46-2.38-.49-.96-1.33-1.44-2.53-1.44-1.06,0-1.83.41-2.32,1.23s-.72,1.81-.72,2.96.24,2.04.72,2.78,1.25,1.11,2.3,1.11c1.15,0,1.94-.44,2.37-1.32Z"/><path d="M186.65,322.48c.31.2.67.54,1.06,1.03v-5.28h1.69v14.39h-1.58v-1.46c-.41.64-.89,1.11-1.45,1.4s-1.2.43-1.92.43c-1.16,0-2.17-.49-3.02-1.47s-1.27-2.28-1.27-3.91c0-1.52.39-2.84,1.16-3.96.77-1.12,1.88-1.67,3.32-1.67.8,0,1.47.17,2,.51ZM182.72,330.32c.47.75,1.23,1.13,2.27,1.13.81,0,1.48-.35,2-1.05s.78-1.7.78-3.01-.27-2.3-.81-2.93-1.2-.95-1.99-.95c-.88,0-1.6.34-2.14,1.02s-.82,1.67-.82,2.99c0,1.12.24,2.06.71,2.81Z"/><path d="M198.48,322.44c.69.35,1.22.8,1.58,1.35.35.53.58,1.14.7,1.85.1.48.16,1.25.16,2.3h-7.61c.03,1.06.28,1.92.75,2.56.47.64,1.19.96,2.16.96.91,0,1.64-.3,2.18-.91.3-.35.52-.76.65-1.23h1.73c-.05.38-.2.81-.45,1.28s-.54.86-.86,1.16c-.53.52-1.19.87-1.97,1.05-.42.1-.9.16-1.42.16-1.29,0-2.39-.47-3.29-1.42-.9-.95-1.35-2.27-1.35-3.98s.45-3.04,1.36-4.09,2.09-1.57,3.55-1.57c.74,0,1.45.17,2.15.52ZM199.11,326.55c-.07-.76-.24-1.37-.49-1.83-.48-.85-1.27-1.27-2.39-1.27-.8,0-1.47.29-2.01.87s-.83,1.32-.86,2.22h5.76Z"/><path d="M100.74,356.12c0,.97-.32,1.77-.95,2.41-.63.63-1.43.95-2.4.95s-1.77-.32-2.4-.95c-.63-.64-.95-1.44-.95-2.41s.32-1.77.95-2.39c.63-.63,1.43-.94,2.4-.94s1.77.31,2.4.94c.63.63.95,1.42.95,2.39Z"/><path d="M111.59,356.12c0,.97-.32,1.77-.95,2.41-.63.63-1.43.95-2.4.95s-1.77-.32-2.4-.95c-.63-.64-.95-1.44-.95-2.41s.32-1.77.95-2.39c.63-.63,1.43-.94,2.4-.94s1.77.31,2.4.94c.63.63.95,1.42.95,2.39Z"/><path d="M122.45,356.12c0,.97-.32,1.77-.95,2.41-.63.63-1.43.95-2.4.95s-1.77-.32-2.4-.95c-.63-.64-.95-1.44-.95-2.41s.32-1.77.95-2.39c.63-.63,1.43-.94,2.4-.94s1.77.31,2.4.94c.63.63.95,1.42.95,2.39Z"/><path d="M133.3,356.12c0,.97-.32,1.77-.95,2.41-.63.63-1.43.95-2.4.95s-1.77-.32-2.4-.95c-.63-.64-.95-1.44-.95-2.41s.32-1.77.95-2.39c.63-.63,1.43-.94,2.4-.94s1.77.31,2.4.94c.63.63.95,1.42.95,2.39Z"/><path d="M144.15,356.12c0,.97-.32,1.77-.95,2.41-.63.63-1.43.95-2.4.95s-1.77-.32-2.4-.95c-.63-.64-.95-1.44-.95-2.41s.32-1.77.95-2.39c.63-.63,1.43-.94,2.4-.94s1.77.31,2.4.94c.63.63.95,1.42.95,2.39Z"/><path d="M155.01,356.12c0,.97-.32,1.77-.95,2.41-.63.63-1.43.95-2.4.95s-1.77-.32-2.4-.95c-.63-.64-.95-1.44-.95-2.41s.32-1.77.95-2.39c.63-.63,1.43-.94,2.4-.94s1.77.31,2.4.94c.63.63.95,1.42.95,2.39Z"/><path d="M165.86,356.12c0,.97-.32,1.77-.95,2.41-.63.63-1.43.95-2.4.95s-1.77-.32-2.4-.95c-.63-.64-.95-1.44-.95-2.41s.32-1.77.95-2.39c.63-.63,1.43-.94,2.4-.94s1.77.31,2.4.94c.63.63.95,1.42.95,2.39Z"/><path d="M176.71,356.12c0,.97-.32,1.77-.95,2.41-.63.63-1.43.95-2.4.95s-1.77-.32-2.4-.95c-.63-.64-.95-1.44-.95-2.41s.32-1.77.95-2.39c.63-.63,1.43-.94,2.4-.94s1.77.31,2.4.94c.63.63.95,1.42.95,2.39Z"/><path class="cls-3" d="M252.71,345.43v22.1H87.32v-22.1h165.4M255.71,342.43H84.32v28.1h171.4v-28.1h0Z"/><path class="cls-4" d="M318.05,275.85h8.99c1.78,0,3.21.5,4.3,1.51s1.64,2.42,1.64,4.25c0,1.57-.49,2.93-1.46,4.09-.97,1.16-2.47,1.74-4.48,1.74h-6.27v8.49h-2.72v-20.08ZM328.6,278.62c-.6-.28-1.42-.42-2.46-.42h-5.38v6.96h5.38c1.21,0,2.2-.26,2.95-.78.76-.52,1.13-1.44,1.13-2.75,0-1.48-.54-2.48-1.63-3.01Z"/><path class="cls-4" d="M343.98,287.08c.57-.07.94-.31,1.13-.71.11-.22.16-.54.16-.95,0-.84-.3-1.45-.89-1.83-.6-.38-1.45-.57-2.56-.57-1.28,0-2.19.35-2.73,1.04-.3.38-.5.96-.59,1.72h-2.3c.05-1.81.63-3.07,1.75-3.78,1.12-.71,2.43-1.06,3.91-1.06,1.72,0,3.12.33,4.19.98,1.06.66,1.6,1.68,1.6,3.06v8.44c0,.25.05.46.16.61.1.16.33.23.66.23.11,0,.23,0,.37-.02s.28-.03.44-.06v1.82c-.38.11-.67.18-.88.21-.2.03-.47.04-.82.04-.85,0-1.46-.3-1.85-.9-.2-.32-.34-.77-.42-1.35-.5.66-1.22,1.23-2.16,1.71-.94.48-1.97.72-3.1.72-1.36,0-2.47-.41-3.33-1.24-.86-.82-1.29-1.86-1.29-3.09,0-1.36.42-2.41,1.27-3.15.85-.75,1.96-1.21,3.34-1.38l3.92-.49ZM338.8,293.73c.52.41,1.13.61,1.85.61.87,0,1.7-.2,2.52-.6,1.37-.66,2.05-1.75,2.05-3.26v-1.98c-.3.19-.69.35-1.16.48-.47.13-.94.22-1.39.27l-1.49.19c-.89.12-1.56.31-2.01.56-.76.43-1.14,1.11-1.14,2.05,0,.71.26,1.27.78,1.68Z"/><path class="cls-4" d="M351.78,281.3h2.34v2.53c.19-.49.66-1.09,1.41-1.8.75-.71,1.61-1.06,2.58-1.06.05,0,.12,0,.23.01s.3.03.56.05v2.6c-.15-.03-.28-.05-.4-.05s-.26-.01-.4-.01c-1.24,0-2.19.4-2.86,1.2-.67.8-1,1.72-1,2.75v8.42h-2.46v-14.64Z"/><path class="cls-4" d="M361.52,277.21h2.49v4.09h2.34v2.01h-2.34v9.56c0,.51.17.85.52,1.03.19.1.51.15.96.15.12,0,.25,0,.38,0s.3-.02.48-.05v1.96c-.28.08-.58.14-.88.18-.31.04-.64.05-.99.05-1.15,0-1.93-.29-2.34-.88s-.62-1.35-.62-2.29v-9.69h-1.98v-2.01h1.98v-4.09Z"/><path class="cls-4" d="M368.81,275.85h2.5v2.79h-2.5v-2.79ZM368.81,281.36h2.5v14.57h-2.5v-14.57Z"/><path class="cls-4" d="M384.71,282.08c1.03.8,1.66,2.18,1.87,4.14h-2.39c-.15-.9-.48-1.65-1-2.25s-1.35-.9-2.5-.9c-1.57,0-2.69.76-3.36,2.29-.44.99-.66,2.22-.66,3.67s.31,2.7.93,3.7c.62,1,1.59,1.5,2.93,1.5,1.02,0,1.83-.31,2.43-.93.6-.62,1.01-1.47,1.24-2.55h2.39c-.27,1.94-.96,3.36-2.05,4.26s-2.49,1.35-4.2,1.35c-1.91,0-3.44-.7-4.58-2.1-1.14-1.4-1.71-3.15-1.71-5.24,0-2.57.62-4.57,1.87-6,1.25-1.43,2.84-2.15,4.77-2.15,1.65,0,2.99.4,4.03,1.2Z"/><path class="cls-4" d="M389.03,275.85h2.5v2.79h-2.5v-2.79ZM389.03,281.36h2.5v14.57h-2.5v-14.57Z"/><path class="cls-4" d="M395.05,281.36h2.41v1.94c.49-.67,1.03-1.18,1.62-1.54.83-.55,1.81-.82,2.93-.82,1.66,0,3.08.64,4.24,1.91,1.16,1.27,1.74,3.09,1.74,5.45,0,3.19-.84,5.47-2.51,6.84-1.06.87-2.3,1.3-3.71,1.3-1.11,0-2.04-.24-2.79-.72-.44-.27-.93-.74-1.47-1.41v7.48h-2.46v-20.41ZM404.31,292.84c.76-.96,1.15-2.4,1.15-4.31,0-1.17-.17-2.17-.51-3.01-.64-1.61-1.81-2.42-3.51-2.42s-2.88.85-3.51,2.56c-.34.91-.51,2.07-.51,3.47,0,1.13.17,2.09.51,2.88.64,1.51,1.81,2.27,3.51,2.27,1.15,0,2.11-.48,2.87-1.44Z"/><path class="cls-4" d="M418.67,287.08c.57-.07.94-.31,1.13-.71.11-.22.16-.54.16-.95,0-.84-.3-1.45-.89-1.83-.6-.38-1.45-.57-2.56-.57-1.28,0-2.19.35-2.73,1.04-.3.38-.5.96-.59,1.72h-2.3c.05-1.81.63-3.07,1.75-3.78,1.12-.71,2.43-1.06,3.91-1.06,1.72,0,3.12.33,4.19.98,1.06.66,1.6,1.68,1.6,3.06v8.44c0,.25.05.46.16.61.1.16.33.23.66.23.11,0,.23,0,.37-.02s.28-.03.44-.06v1.82c-.38.11-.67.18-.88.21-.2.03-.47.04-.82.04-.85,0-1.46-.3-1.85-.9-.2-.32-.34-.77-.42-1.35-.5.66-1.22,1.23-2.16,1.71-.94.48-1.97.72-3.1.72-1.36,0-2.47-.41-3.33-1.24-.86-.82-1.29-1.86-1.29-3.09,0-1.36.42-2.41,1.27-3.15.85-.75,1.96-1.21,3.34-1.38l3.92-.49ZM413.49,293.73c.52.41,1.13.61,1.85.61.87,0,1.7-.2,2.52-.6,1.37-.66,2.05-1.75,2.05-3.26v-1.98c-.3.19-.69.35-1.16.48-.47.13-.94.22-1.39.27l-1.49.19c-.89.12-1.56.31-2.01.56-.76.43-1.14,1.11-1.14,2.05,0,.71.26,1.27.78,1.68Z"/><path class="cls-4" d="M426.4,281.3h2.34v2.08c.69-.86,1.43-1.47,2.2-1.85.77-.37,1.64-.56,2.58-.56,2.08,0,3.48.72,4.21,2.17.4.79.6,1.93.6,3.4v9.39h-2.5v-9.23c0-.89-.13-1.61-.4-2.16-.44-.91-1.23-1.37-2.38-1.37-.58,0-1.06.06-1.44.18-.67.2-1.27.6-1.78,1.2-.41.48-.68.98-.8,1.5s-.18,1.25-.18,2.21v7.67h-2.46v-14.64Z"/><path class="cls-4" d="M442.46,277.21h2.49v4.09h2.34v2.01h-2.34v9.56c0,.51.17.85.52,1.03.19.1.51.15.96.15.12,0,.25,0,.38,0s.3-.02.48-.05v1.96c-.28.08-.58.14-.88.18-.31.04-.64.05-.99.05-1.15,0-1.93-.29-2.34-.88s-.62-1.35-.62-2.29v-9.69h-1.98v-2.01h1.98v-4.09Z"/><path class="cls-4" d="M457.64,291.54c.61-1.25,1.79-2.38,3.55-3.4l2.62-1.52c1.18-.68,2-1.27,2.47-1.75.75-.76,1.12-1.62,1.12-2.6,0-1.14-.34-2.05-1.03-2.72s-1.6-1.01-2.73-1.01c-1.69,0-2.85.64-3.5,1.92-.35.69-.54,1.64-.57,2.85h-2.5c.03-1.7.34-3.09.94-4.17,1.07-1.9,2.95-2.84,5.65-2.84,2.24,0,3.88.61,4.92,1.82,1.03,1.21,1.55,2.56,1.55,4.05,0,1.57-.55,2.91-1.65,4.02-.64.65-1.78,1.43-3.43,2.35l-1.87,1.04c-.89.49-1.6.96-2.11,1.41-.91.79-1.49,1.67-1.72,2.64h10.69v2.32h-13.44c.09-1.69.44-3.15,1.05-4.4Z"/><path d="M321.06,318.27h2.2l5.21,14.35h-2.13l-1.46-4.3h-5.67l-1.55,4.3h-1.99l5.4-14.35ZM324.25,326.74l-2.18-6.34-2.31,6.34h4.49Z"/><path d="M336.9,322.71c.74.57,1.18,1.56,1.33,2.96h-1.71c-.1-.64-.34-1.18-.71-1.61s-.97-.64-1.79-.64c-1.12,0-1.92.55-2.4,1.64-.31.71-.47,1.58-.47,2.62s.22,1.93.66,2.64c.44.72,1.14,1.07,2.09,1.07.73,0,1.31-.22,1.73-.67s.72-1.05.88-1.82h1.71c-.2,1.39-.68,2.4-1.46,3.04s-1.78.96-3,.96c-1.37,0-2.46-.5-3.27-1.5s-1.22-2.25-1.22-3.75c0-1.84.45-3.26,1.34-4.29s2.03-1.53,3.41-1.53c1.18,0,2.14.29,2.88.86Z"/><path d="M346.9,322.71c.74.57,1.18,1.56,1.33,2.96h-1.71c-.1-.64-.34-1.18-.71-1.61s-.97-.64-1.79-.64c-1.12,0-1.92.55-2.4,1.64-.31.71-.47,1.58-.47,2.62s.22,1.93.66,2.64c.44.72,1.14,1.07,2.09,1.07.73,0,1.31-.22,1.73-.67s.72-1.05.88-1.82h1.71c-.2,1.39-.68,2.4-1.46,3.04s-1.78.96-3,.96c-1.37,0-2.46-.5-3.27-1.5s-1.22-2.25-1.22-3.75c0-1.84.45-3.26,1.34-4.29s2.03-1.53,3.41-1.53c1.18,0,2.14.29,2.88.86Z"/><path d="M356.45,322.44c.69.35,1.22.8,1.58,1.35.35.53.58,1.14.7,1.85.1.48.16,1.25.16,2.3h-7.61c.03,1.06.28,1.92.75,2.56.47.64,1.19.96,2.16.96.91,0,1.64-.3,2.18-.91.3-.35.52-.76.65-1.23h1.73c-.05.38-.2.81-.45,1.28s-.54.86-.86,1.16c-.53.52-1.19.87-1.97,1.05-.42.1-.9.16-1.42.16-1.29,0-2.39-.47-3.29-1.42-.9-.95-1.35-2.27-1.35-3.98s.45-3.04,1.36-4.09,2.09-1.57,3.55-1.57c.74,0,1.45.17,2.15.52ZM357.08,326.55c-.07-.76-.24-1.37-.49-1.83-.48-.85-1.27-1.27-2.39-1.27-.8,0-1.47.29-2.01.87s-.83,1.32-.86,2.22h5.76Z"/><path d="M362.16,329.33c.05.59.2,1.04.45,1.35.45.57,1.24.85,2.35.85.66,0,1.25-.14,1.75-.42.51-.28.76-.72.76-1.31,0-.45-.2-.79-.61-1.03-.26-.14-.77-.31-1.53-.5l-1.42-.35c-.91-.22-1.57-.47-2-.74-.77-.48-1.15-1.13-1.15-1.97,0-.99.36-1.79,1.08-2.4.72-.61,1.69-.92,2.91-.92,1.6,0,2.75.46,3.45,1.39.44.59.66,1.22.64,1.89h-1.66c-.03-.39-.18-.75-.43-1.08-.41-.46-1.13-.69-2.15-.69-.68,0-1.19.13-1.54.38-.35.25-.52.59-.52,1,0,.45.23.82.69,1.09.27.16.66.3,1.17.43l1.18.28c1.29.31,2.15.6,2.59.89.68.45,1.03,1.16,1.03,2.12s-.36,1.74-1.07,2.41-1.8,1.02-3.27,1.02c-1.58,0-2.69-.35-3.35-1.06-.66-.71-1.01-1.58-1.05-2.62h1.69Z"/><path d="M372.16,329.33c.05.59.2,1.04.45,1.35.45.57,1.24.85,2.35.85.66,0,1.25-.14,1.75-.42.51-.28.76-.72.76-1.31,0-.45-.2-.79-.61-1.03-.26-.14-.77-.31-1.53-.5l-1.42-.35c-.91-.22-1.57-.47-2-.74-.77-.48-1.15-1.13-1.15-1.97,0-.99.36-1.79,1.08-2.4.72-.61,1.69-.92,2.91-.92,1.6,0,2.75.46,3.45,1.39.44.59.66,1.22.64,1.89h-1.66c-.03-.39-.18-.75-.43-1.08-.41-.46-1.13-.69-2.15-.69-.68,0-1.19.13-1.54.38-.35.25-.52.59-.52,1,0,.45.23.82.69,1.09.27.16.66.3,1.17.43l1.18.28c1.29.31,2.15.6,2.59.89.68.45,1.03,1.16,1.03,2.12s-.36,1.74-1.07,2.41-1.8,1.02-3.27,1.02c-1.58,0-2.69-.35-3.35-1.06-.66-.71-1.01-1.58-1.05-2.62h1.69Z"/><path d="M397.05,319.31c.99.96,1.54,2.04,1.65,3.26h-1.89c-.21-.92-.63-1.66-1.26-2.2s-1.51-.81-2.65-.81c-1.39,0-2.51.5-3.36,1.49-.85.99-1.28,2.52-1.28,4.57,0,1.68.39,3.04,1.16,4.09.77,1.05,1.92,1.57,3.45,1.57,1.41,0,2.48-.55,3.21-1.65.39-.58.68-1.34.87-2.29h1.89c-.17,1.51-.72,2.78-1.66,3.8-1.13,1.23-2.65,1.85-4.56,1.85-1.65,0-3.03-.5-4.15-1.51-1.47-1.33-2.21-3.4-2.21-6.19,0-2.12.55-3.85,1.66-5.21,1.2-1.47,2.85-2.21,4.95-2.21,1.79,0,3.19.48,4.18,1.44Z"/><path d="M408.69,323.2c.92.9,1.39,2.22,1.39,3.96s-.41,3.08-1.22,4.18c-.81,1.1-2.08,1.65-3.79,1.65-1.43,0-2.56-.49-3.4-1.46-.84-.97-1.26-2.28-1.26-3.92,0-1.76.44-3.16,1.33-4.2.89-1.04,2.08-1.56,3.57-1.56,1.34,0,2.47.45,3.39,1.35ZM407.6,330.15c.43-.88.64-1.86.64-2.94,0-.97-.15-1.77-.46-2.38-.49-.96-1.33-1.44-2.53-1.44-1.06,0-1.83.41-2.32,1.23s-.72,1.81-.72,2.96.24,2.04.72,2.78,1.25,1.11,2.3,1.11c1.15,0,1.94-.44,2.37-1.32Z"/><path d="M417.98,322.48c.31.2.67.54,1.06,1.03v-5.28h1.69v14.39h-1.58v-1.46c-.41.64-.89,1.11-1.45,1.4s-1.2.43-1.92.43c-1.16,0-2.17-.49-3.02-1.47s-1.27-2.28-1.27-3.91c0-1.52.39-2.84,1.16-3.96.77-1.12,1.88-1.67,3.32-1.67.8,0,1.47.17,2,.51ZM414.06,330.32c.47.75,1.23,1.13,2.27,1.13.81,0,1.48-.35,2-1.05s.78-1.7.78-3.01-.27-2.3-.81-2.93-1.2-.95-1.99-.95c-.88,0-1.6.34-2.14,1.02s-.82,1.67-.82,2.99c0,1.12.24,2.06.71,2.81Z"/><path d="M429.82,322.44c.69.35,1.22.8,1.58,1.35.35.53.58,1.14.7,1.85.1.48.16,1.25.16,2.3h-7.61c.03,1.06.28,1.92.75,2.56.47.64,1.19.96,2.16.96.91,0,1.64-.3,2.18-.91.3-.35.52-.76.65-1.23h1.73c-.05.38-.2.81-.45,1.28s-.54.86-.86,1.16c-.53.52-1.19.87-1.97,1.05-.42.1-.9.16-1.42.16-1.29,0-2.39-.47-3.29-1.42-.9-.95-1.35-2.27-1.35-3.98s.45-3.04,1.36-4.09,2.09-1.57,3.55-1.57c.74,0,1.45.17,2.15.52ZM430.45,326.55c-.07-.76-.24-1.37-.49-1.83-.48-.85-1.27-1.27-2.39-1.27-.8,0-1.47.29-2.01.87s-.83,1.32-.86,2.22h5.76Z"/><path d="M332.08,356.12c0,.97-.32,1.77-.95,2.41-.63.63-1.43.95-2.4.95s-1.77-.32-2.4-.95c-.63-.64-.95-1.44-.95-2.41s.32-1.77.95-2.39c.63-.63,1.43-.94,2.4-.94s1.77.31,2.4.94c.63.63.95,1.42.95,2.39Z"/><path d="M342.93,356.12c0,.97-.32,1.77-.95,2.41-.63.63-1.43.95-2.4.95s-1.77-.32-2.4-.95c-.63-.64-.95-1.44-.95-2.41s.32-1.77.95-2.39c.63-.63,1.43-.94,2.4-.94s1.77.31,2.4.94c.63.63.95,1.42.95,2.39Z"/><path d="M353.79,356.12c0,.97-.32,1.77-.95,2.41-.63.63-1.43.95-2.4.95s-1.77-.32-2.4-.95c-.63-.64-.95-1.44-.95-2.41s.32-1.77.95-2.39c.63-.63,1.43-.94,2.4-.94s1.77.31,2.4.94c.63.63.95,1.42.95,2.39Z"/><path d="M364.64,356.12c0,.97-.32,1.77-.95,2.41-.63.63-1.43.95-2.4.95s-1.77-.32-2.4-.95c-.63-.64-.95-1.44-.95-2.41s.32-1.77.95-2.39c.63-.63,1.43-.94,2.4-.94s1.77.31,2.4.94c.63.63.95,1.42.95,2.39Z"/><path d="M375.49,356.12c0,.97-.32,1.77-.95,2.41-.63.63-1.43.95-2.4.95s-1.77-.32-2.4-.95c-.63-.64-.95-1.44-.95-2.41s.32-1.77.95-2.39c.63-.63,1.43-.94,2.4-.94s1.77.31,2.4.94c.63.63.95,1.42.95,2.39Z"/><path d="M386.34,356.12c0,.97-.32,1.77-.95,2.41-.63.63-1.43.95-2.4.95s-1.77-.32-2.4-.95c-.63-.64-.95-1.44-.95-2.41s.32-1.77.95-2.39c.63-.63,1.43-.94,2.4-.94s1.77.31,2.4.94c.63.63.95,1.42.95,2.39Z"/><path d="M397.2,356.12c0,.97-.32,1.77-.95,2.41-.63.63-1.43.95-2.4.95s-1.77-.32-2.4-.95c-.63-.64-.95-1.44-.95-2.41s.32-1.77.95-2.39c.63-.63,1.43-.94,2.4-.94s1.77.31,2.4.94c.63.63.95,1.42.95,2.39Z"/><path d="M408.05,356.12c0,.97-.32,1.77-.95,2.41-.63.63-1.43.95-2.4.95s-1.77-.32-2.4-.95c-.63-.64-.95-1.44-.95-2.41s.32-1.77.95-2.39c.63-.63,1.43-.94,2.4-.94s1.77.31,2.4.94c.63.63.95,1.42.95,2.39Z"/><path class="cls-3" d="M484.05,345.43v22.1h-165.4v-22.1h165.4M487.05,342.43h-171.4v28.1h171.4v-28.1h0Z"/><rect class="cls-3" x="756.19" y="395.03" width="171.18" height="47.01" rx="23.5" ry="23.5"/><rect class="cls-4" x="752.19" y="391.03" width="171.18" height="47.01" rx="23.5" ry="23.5"/><path class="cls-2" d="M809.42,409.24c.99.96,1.54,2.04,1.65,3.26h-1.89c-.21-.92-.63-1.66-1.26-2.2s-1.51-.81-2.65-.81c-1.39,0-2.51.5-3.36,1.49-.85.99-1.28,2.52-1.28,4.57,0,1.68.39,3.04,1.16,4.09s1.92,1.57,3.45,1.57c1.41,0,2.48-.55,3.21-1.65.39-.58.68-1.34.87-2.29h1.89c-.17,1.51-.72,2.78-1.66,3.8-1.13,1.23-2.65,1.85-4.56,1.85-1.65,0-3.03-.5-4.15-1.51-1.47-1.33-2.21-3.4-2.21-6.19,0-2.12.55-3.85,1.66-5.21,1.2-1.47,2.85-2.21,4.95-2.21,1.79,0,3.19.48,4.18,1.44Z"/><path class="cls-2" d="M821.06,413.13c.92.9,1.39,2.22,1.39,3.96s-.41,3.08-1.22,4.18c-.81,1.1-2.08,1.65-3.79,1.65-1.43,0-2.56-.49-3.4-1.46-.84-.97-1.26-2.28-1.26-3.92,0-1.76.44-3.16,1.33-4.2.88-1.04,2.08-1.56,3.57-1.56,1.34,0,2.47.45,3.39,1.35ZM819.97,420.08c.43-.88.64-1.86.64-2.94,0-.97-.15-1.77-.46-2.38-.49-.96-1.33-1.44-2.53-1.44-1.06,0-1.83.41-2.32,1.23-.48.82-.72,1.81-.72,2.96s.24,2.04.72,2.78c.48.74,1.25,1.11,2.3,1.11,1.15,0,1.94-.44,2.37-1.32Z"/><path class="cls-2" d="M824.6,412.08h1.67v1.48c.5-.61,1.02-1.05,1.57-1.32.55-.27,1.17-.4,1.85-.4,1.48,0,2.49.52,3.01,1.55.29.57.43,1.38.43,2.43v6.71h-1.79v-6.59c0-.64-.09-1.15-.28-1.54-.31-.65-.88-.98-1.7-.98-.42,0-.76.04-1.03.13-.48.14-.9.43-1.27.86-.29.34-.48.7-.57,1.07s-.13.89-.13,1.58v5.48h-1.76v-10.46Z"/><path class="cls-2" d="M836.08,409.16h1.78v2.92h1.67v1.44h-1.67v6.83c0,.36.12.61.37.73.14.07.37.11.68.11.08,0,.18,0,.27,0,.1,0,.21-.01.34-.03v1.4c-.2.06-.41.1-.63.13-.22.03-.45.04-.71.04-.82,0-1.38-.21-1.67-.63s-.44-.96-.44-1.64v-6.92h-1.42v-1.44h1.42v-2.92Z"/><path class="cls-2" d="M841.28,408.2h1.79v1.99h-1.79v-1.99ZM841.28,412.13h1.79v10.41h-1.79v-10.41Z"/><path class="cls-2" d="M845.72,412.08h1.67v1.48c.5-.61,1.02-1.05,1.57-1.32.55-.27,1.17-.4,1.85-.4,1.48,0,2.49.52,3.01,1.55.29.57.43,1.38.43,2.43v6.71h-1.79v-6.59c0-.64-.09-1.15-.28-1.54-.31-.65-.88-.98-1.7-.98-.42,0-.76.04-1.03.13-.48.14-.9.43-1.27.86-.29.34-.48.7-.57,1.07s-.13.89-.13,1.58v5.48h-1.76v-10.46Z"/><path class="cls-2" d="M858.61,412.08v6.94c0,.53.08.97.25,1.31.3.62.87.94,1.7.94,1.19,0,2-.55,2.43-1.64.23-.59.35-1.39.35-2.41v-5.14h1.76v10.46h-1.66l.02-1.54c-.22.4-.5.73-.83,1.01-.66.55-1.46.82-2.4.82-1.46,0-2.46-.5-2.99-1.49-.29-.53-.43-1.25-.43-2.14v-7.11h1.8Z"/><path class="cls-2" d="M874.43,412.37c.69.35,1.22.8,1.58,1.35.35.53.58,1.14.7,1.85.1.48.16,1.25.16,2.3h-7.61c.03,1.06.28,1.92.75,2.56.47.64,1.19.96,2.16.96.91,0,1.64-.3,2.18-.91.3-.35.52-.76.65-1.23h1.73c-.04.38-.2.81-.45,1.28-.26.47-.54.86-.86,1.16-.53.52-1.19.87-1.97,1.05-.42.1-.89.16-1.42.16-1.29,0-2.39-.47-3.29-1.42-.9-.95-1.35-2.27-1.35-3.98s.45-3.04,1.36-4.09c.91-1.05,2.09-1.57,3.55-1.57.74,0,1.45.17,2.15.52ZM875.06,416.48c-.07-.76-.24-1.37-.49-1.83-.48-.85-1.27-1.27-2.39-1.27-.8,0-1.47.29-2.01.87-.54.58-.83,1.32-.86,2.22h5.76Z"/><path class="cls-4" d="M754.47,275.85h8.99c1.78,0,3.21.5,4.3,1.51,1.09,1.01,1.64,2.42,1.64,4.25,0,1.57-.49,2.93-1.46,4.09s-2.47,1.74-4.48,1.74h-6.27v8.49h-2.72v-20.08ZM765.02,278.62c-.6-.28-1.42-.42-2.46-.42h-5.38v6.96h5.38c1.21,0,2.2-.26,2.95-.78.75-.52,1.13-1.44,1.13-2.75,0-1.48-.54-2.48-1.63-3.01Z"/><path class="cls-4" d="M780.41,287.08c.57-.07.94-.31,1.13-.71.11-.22.16-.54.16-.95,0-.84-.3-1.45-.89-1.83s-1.45-.57-2.56-.57c-1.28,0-2.19.35-2.73,1.04-.3.38-.5.96-.59,1.72h-2.3c.05-1.81.63-3.07,1.75-3.78s2.43-1.06,3.91-1.06c1.72,0,3.12.33,4.19.98,1.07.66,1.6,1.68,1.6,3.06v8.44c0,.25.05.46.16.61.1.16.33.23.66.23.11,0,.23,0,.37-.02s.28-.03.44-.06v1.82c-.38.11-.67.18-.88.21s-.47.04-.82.04c-.85,0-1.46-.3-1.85-.9-.2-.32-.34-.77-.42-1.35-.5.66-1.22,1.23-2.16,1.71-.94.48-1.97.72-3.1.72-1.36,0-2.47-.41-3.33-1.24-.86-.82-1.29-1.86-1.29-3.09,0-1.36.42-2.41,1.27-3.15.85-.75,1.96-1.21,3.34-1.38l3.92-.49ZM775.22,293.73c.52.41,1.13.61,1.85.61.87,0,1.7-.2,2.52-.6,1.37-.66,2.05-1.75,2.05-3.26v-1.98c-.3.19-.69.35-1.16.48-.47.13-.94.22-1.39.27l-1.49.19c-.89.12-1.56.31-2.01.56-.76.43-1.14,1.11-1.14,2.05,0,.71.26,1.27.78,1.68Z"/><path class="cls-4" d="M788.2,281.3h2.34v2.53c.19-.49.66-1.09,1.41-1.8s1.61-1.06,2.58-1.06c.05,0,.12,0,.23.01s.3.03.56.05v2.6c-.15-.03-.28-.05-.4-.05s-.26-.01-.4-.01c-1.24,0-2.19.4-2.86,1.2s-1,1.72-1,2.75v8.42h-2.46v-14.64Z"/><path class="cls-4" d="M797.95,277.21h2.49v4.09h2.34v2.01h-2.34v9.56c0,.51.17.85.52,1.03.19.1.51.15.96.15.12,0,.25,0,.38,0s.3-.02.48-.05v1.96c-.28.08-.58.14-.88.18s-.64.05-.99.05c-1.15,0-1.93-.29-2.34-.88s-.62-1.35-.62-2.29v-9.69h-1.98v-2.01h1.98v-4.09Z"/><path class="cls-4" d="M805.23,275.85h2.5v2.79h-2.5v-2.79ZM805.23,281.36h2.5v14.57h-2.5v-14.57Z"/><path class="cls-4" d="M821.13,282.08c1.03.8,1.66,2.18,1.87,4.14h-2.39c-.15-.9-.48-1.65-1-2.25s-1.35-.9-2.5-.9c-1.57,0-2.69.76-3.36,2.29-.44.99-.66,2.22-.66,3.67s.31,2.7.93,3.7c.62,1,1.59,1.5,2.93,1.5,1.02,0,1.83-.31,2.43-.93s1.01-1.47,1.24-2.55h2.39c-.27,1.94-.96,3.36-2.05,4.26s-2.49,1.35-4.2,1.35c-1.91,0-3.44-.7-4.58-2.1s-1.71-3.15-1.71-5.24c0-2.57.62-4.57,1.87-6s2.84-2.15,4.77-2.15c1.65,0,2.99.4,4.03,1.2Z"/><path class="cls-4" d="M825.45,275.85h2.5v2.79h-2.5v-2.79ZM825.45,281.36h2.5v14.57h-2.5v-14.57Z"/><path class="cls-4" d="M831.47,281.36h2.41v1.94c.49-.67,1.03-1.18,1.62-1.54.83-.55,1.81-.82,2.93-.82,1.66,0,3.08.64,4.24,1.91,1.16,1.27,1.74,3.09,1.74,5.45,0,3.19-.84,5.47-2.51,6.84-1.06.87-2.3,1.3-3.71,1.3-1.11,0-2.04-.24-2.79-.72-.44-.27-.93-.74-1.47-1.41v7.48h-2.46v-20.41ZM840.73,292.84c.76-.96,1.15-2.4,1.15-4.31,0-1.17-.17-2.17-.51-3.01-.64-1.61-1.81-2.42-3.51-2.42s-2.88.85-3.51,2.56c-.34.91-.51,2.07-.51,3.47,0,1.13.17,2.09.51,2.88.64,1.51,1.81,2.27,3.51,2.27,1.15,0,2.11-.48,2.87-1.44Z"/><path class="cls-4" d="M855.09,287.08c.57-.07.94-.31,1.13-.71.11-.22.16-.54.16-.95,0-.84-.3-1.45-.89-1.83s-1.45-.57-2.56-.57c-1.28,0-2.19.35-2.73,1.04-.3.38-.5.96-.59,1.72h-2.3c.05-1.81.63-3.07,1.75-3.78s2.43-1.06,3.91-1.06c1.72,0,3.12.33,4.19.98,1.07.66,1.6,1.68,1.6,3.06v8.44c0,.25.05.46.16.61.1.16.33.23.66.23.11,0,.23,0,.37-.02s.28-.03.44-.06v1.82c-.38.11-.67.18-.88.21s-.47.04-.82.04c-.85,0-1.46-.3-1.85-.9-.2-.32-.34-.77-.42-1.35-.5.66-1.22,1.23-2.16,1.71-.94.48-1.97.72-3.1.72-1.36,0-2.47-.41-3.33-1.24-.86-.82-1.29-1.86-1.29-3.09,0-1.36.42-2.41,1.27-3.15.85-.75,1.96-1.21,3.34-1.38l3.92-.49ZM849.91,293.73c.52.41,1.13.61,1.85.61.87,0,1.7-.2,2.52-.6,1.37-.66,2.05-1.75,2.05-3.26v-1.98c-.3.19-.69.35-1.16.48-.47.13-.94.22-1.39.27l-1.49.19c-.89.12-1.56.31-2.01.56-.76.43-1.14,1.11-1.14,2.05,0,.71.26,1.27.78,1.68Z"/><path class="cls-4" d="M862.82,281.3h2.34v2.08c.69-.86,1.43-1.47,2.2-1.85s1.64-.56,2.58-.56c2.08,0,3.48.72,4.21,2.17.4.79.6,1.93.6,3.4v9.39h-2.5v-9.23c0-.89-.13-1.61-.4-2.16-.44-.91-1.23-1.37-2.38-1.37-.58,0-1.06.06-1.44.18-.67.2-1.27.6-1.78,1.2-.41.48-.68.98-.8,1.5s-.18,1.25-.18,2.21v7.67h-2.46v-14.64Z"/><path class="cls-4" d="M878.88,277.21h2.49v4.09h2.34v2.01h-2.34v9.56c0,.51.17.85.52,1.03.19.1.51.15.96.15.12,0,.25,0,.38,0s.3-.02.48-.05v1.96c-.28.08-.58.14-.88.18s-.64.05-.99.05c-1.15,0-1.93-.29-2.34-.88s-.62-1.35-.62-2.29v-9.69h-1.98v-2.01h1.98v-4.09Z"/><path d="M757.48,318.27h2.2l5.21,14.35h-2.13l-1.46-4.3h-5.67l-1.55,4.3h-1.99l5.4-14.35ZM760.67,326.74l-2.18-6.34-2.31,6.34h4.49Z"/><path d="M773.32,322.71c.74.57,1.18,1.56,1.33,2.96h-1.71c-.1-.64-.34-1.18-.71-1.61s-.97-.64-1.79-.64c-1.12,0-1.92.55-2.4,1.64-.31.71-.47,1.58-.47,2.62s.22,1.93.66,2.64c.44.72,1.14,1.07,2.09,1.07.73,0,1.31-.22,1.73-.67.43-.44.72-1.05.88-1.82h1.71c-.2,1.39-.68,2.4-1.46,3.04s-1.78.96-3,.96c-1.37,0-2.46-.5-3.27-1.5-.81-1-1.22-2.25-1.22-3.75,0-1.84.45-3.26,1.34-4.29.89-1.02,2.03-1.53,3.41-1.53,1.18,0,2.14.29,2.88.86Z"/><path d="M783.32,322.71c.74.57,1.18,1.56,1.33,2.96h-1.71c-.1-.64-.34-1.18-.71-1.61s-.97-.64-1.79-.64c-1.12,0-1.92.55-2.4,1.64-.31.71-.47,1.58-.47,2.62s.22,1.93.66,2.64c.44.72,1.14,1.07,2.09,1.07.73,0,1.31-.22,1.73-.67.43-.44.72-1.05.88-1.82h1.71c-.2,1.39-.68,2.4-1.46,3.04s-1.78.96-3,.96c-1.37,0-2.46-.5-3.27-1.5-.81-1-1.22-2.25-1.22-3.75,0-1.84.45-3.26,1.34-4.29.89-1.02,2.03-1.53,3.41-1.53,1.18,0,2.14.29,2.88.86Z"/><path d="M792.87,322.44c.69.35,1.22.8,1.58,1.35.35.53.58,1.14.7,1.85.1.48.16,1.25.16,2.3h-7.61c.03,1.06.28,1.92.75,2.56.47.64,1.19.96,2.16.96.91,0,1.64-.3,2.18-.91.3-.35.52-.76.65-1.23h1.73c-.04.38-.2.81-.45,1.28-.26.47-.54.86-.86,1.16-.53.52-1.19.87-1.97,1.05-.42.1-.89.16-1.42.16-1.29,0-2.39-.47-3.29-1.42-.9-.95-1.35-2.27-1.35-3.98s.45-3.04,1.36-4.09c.91-1.05,2.09-1.57,3.55-1.57.74,0,1.45.17,2.15.52ZM793.5,326.55c-.07-.76-.24-1.37-.49-1.83-.48-.85-1.27-1.27-2.39-1.27-.8,0-1.47.29-2.01.87-.54.58-.83,1.32-.86,2.22h5.76Z"/><path d="M798.58,329.33c.05.59.2,1.04.45,1.35.45.57,1.24.85,2.35.85.67,0,1.25-.14,1.75-.42.51-.28.76-.72.76-1.31,0-.45-.2-.79-.61-1.03-.26-.14-.77-.31-1.53-.5l-1.42-.35c-.91-.22-1.58-.47-2-.74-.77-.48-1.15-1.13-1.15-1.97,0-.99.36-1.79,1.08-2.4s1.69-.92,2.91-.92c1.6,0,2.75.46,3.45,1.39.44.59.66,1.22.64,1.89h-1.66c-.03-.39-.18-.75-.43-1.08-.41-.46-1.13-.69-2.15-.69-.68,0-1.19.13-1.54.38-.35.25-.53.59-.53,1,0,.45.23.82.69,1.09.27.16.66.3,1.17.43l1.18.28c1.29.31,2.15.6,2.59.89.68.45,1.03,1.16,1.03,2.12s-.36,1.74-1.07,2.41c-.72.68-1.8,1.02-3.27,1.02-1.58,0-2.69-.35-3.35-1.06-.66-.71-1.01-1.58-1.05-2.62h1.69Z"/><path d="M808.58,329.33c.05.59.2,1.04.45,1.35.45.57,1.24.85,2.35.85.67,0,1.25-.14,1.75-.42.51-.28.76-.72.76-1.31,0-.45-.2-.79-.61-1.03-.26-.14-.77-.31-1.53-.5l-1.42-.35c-.91-.22-1.58-.47-2-.74-.77-.48-1.15-1.13-1.15-1.97,0-.99.36-1.79,1.08-2.4s1.69-.92,2.91-.92c1.6,0,2.75.46,3.45,1.39.44.59.66,1.22.64,1.89h-1.66c-.03-.39-.18-.75-.43-1.08-.41-.46-1.13-.69-2.15-.69-.68,0-1.19.13-1.54.38-.35.25-.53.59-.53,1,0,.45.23.82.69,1.09.27.16.66.3,1.17.43l1.18.28c1.29.31,2.15.6,2.59.89.68.45,1.03,1.16,1.03,2.12s-.36,1.74-1.07,2.41c-.72.68-1.8,1.02-3.27,1.02-1.58,0-2.69-.35-3.35-1.06-.66-.71-1.01-1.58-1.05-2.62h1.69Z"/><path d="M833.47,319.31c.99.96,1.54,2.04,1.65,3.26h-1.89c-.21-.92-.63-1.66-1.26-2.2s-1.51-.81-2.65-.81c-1.39,0-2.51.5-3.36,1.49-.85.99-1.28,2.52-1.28,4.57,0,1.68.39,3.04,1.16,4.09s1.92,1.57,3.45,1.57c1.41,0,2.48-.55,3.21-1.65.39-.58.68-1.34.87-2.29h1.89c-.17,1.51-.72,2.78-1.66,3.8-1.13,1.23-2.65,1.85-4.56,1.85-1.65,0-3.03-.5-4.15-1.51-1.47-1.33-2.21-3.4-2.21-6.19,0-2.12.55-3.85,1.66-5.21,1.2-1.47,2.85-2.21,4.95-2.21,1.79,0,3.19.48,4.18,1.44Z"/><path d="M845.11,323.2c.92.9,1.39,2.22,1.39,3.96s-.41,3.08-1.22,4.18c-.81,1.1-2.08,1.65-3.79,1.65-1.43,0-2.56-.49-3.4-1.46-.84-.97-1.26-2.28-1.26-3.92,0-1.76.44-3.16,1.33-4.2.88-1.04,2.08-1.56,3.57-1.56,1.34,0,2.47.45,3.39,1.35ZM844.02,330.15c.43-.88.64-1.86.64-2.94,0-.97-.15-1.77-.46-2.38-.49-.96-1.33-1.44-2.53-1.44-1.06,0-1.83.41-2.32,1.23-.48.82-.72,1.81-.72,2.96s.24,2.04.72,2.78c.48.74,1.25,1.11,2.3,1.11,1.15,0,1.94-.44,2.37-1.32Z"/><path d="M854.41,322.48c.31.2.67.54,1.06,1.03v-5.28h1.69v14.39h-1.58v-1.46c-.41.64-.89,1.11-1.45,1.4s-1.2.43-1.92.43c-1.16,0-2.17-.49-3.02-1.47s-1.27-2.28-1.27-3.91c0-1.52.39-2.84,1.16-3.96.77-1.12,1.88-1.67,3.32-1.67.8,0,1.47.17,2,.51ZM850.48,330.32c.47.75,1.23,1.13,2.27,1.13.81,0,1.47-.35,2-1.05s.78-1.7.78-3.01-.27-2.3-.81-2.93c-.54-.63-1.2-.95-1.99-.95-.88,0-1.6.34-2.14,1.02-.55.68-.82,1.67-.82,2.99,0,1.12.24,2.06.71,2.81Z"/><path d="M866.24,322.44c.69.35,1.22.8,1.58,1.35.35.53.58,1.14.7,1.85.1.48.16,1.25.16,2.3h-7.61c.03,1.06.28,1.92.75,2.56.47.64,1.19.96,2.16.96.91,0,1.64-.3,2.18-.91.3-.35.52-.76.65-1.23h1.73c-.04.38-.2.81-.45,1.28-.26.47-.54.86-.86,1.16-.53.52-1.19.87-1.97,1.05-.42.1-.89.16-1.42.16-1.29,0-2.39-.47-3.29-1.42-.9-.95-1.35-2.27-1.35-3.98s.45-3.04,1.36-4.09c.91-1.05,2.09-1.57,3.55-1.57.74,0,1.45.17,2.15.52ZM866.87,326.55c-.07-.76-.24-1.37-.49-1.83-.48-.85-1.27-1.27-2.39-1.27-.8,0-1.47.29-2.01.87-.54.58-.83,1.32-.86,2.22h5.76Z"/><path d="M768.5,356.12c0,.97-.32,1.77-.95,2.41-.63.63-1.43.95-2.4.95s-1.77-.32-2.4-.95c-.63-.64-.95-1.44-.95-2.41s.32-1.77.95-2.39,1.43-.94,2.4-.94,1.77.31,2.4.94c.63.63.95,1.42.95,2.39Z"/><path d="M779.35,356.12c0,.97-.32,1.77-.95,2.41-.63.63-1.43.95-2.4.95s-1.77-.32-2.4-.95c-.63-.64-.95-1.44-.95-2.41s.32-1.77.95-2.39c.63-.63,1.43-.94,2.4-.94s1.77.31,2.4.94.95,1.42.95,2.39Z"/><path d="M790.21,356.12c0,.97-.32,1.77-.95,2.41-.63.63-1.43.95-2.4.95s-1.77-.32-2.4-.95c-.63-.64-.95-1.44-.95-2.41s.32-1.77.95-2.39,1.43-.94,2.4-.94,1.77.31,2.4.94c.63.63.95,1.42.95,2.39Z"/><path d="M801.06,356.12c0,.97-.32,1.77-.95,2.41-.63.63-1.43.95-2.4.95s-1.77-.32-2.4-.95c-.63-.64-.95-1.44-.95-2.41s.32-1.77.95-2.39c.63-.63,1.43-.94,2.4-.94s1.77.31,2.4.94.95,1.42.95,2.39Z"/><path d="M811.91,356.12c0,.97-.32,1.77-.95,2.41-.63.63-1.43.95-2.4.95s-1.77-.32-2.4-.95c-.63-.64-.95-1.44-.95-2.41s.32-1.77.95-2.39,1.43-.94,2.4-.94,1.77.31,2.4.94c.63.63.95,1.42.95,2.39Z"/><path d="M822.77,356.12c0,.97-.32,1.77-.95,2.41-.63.63-1.43.95-2.4.95s-1.77-.32-2.4-.95c-.63-.64-.95-1.44-.95-2.41s.32-1.77.95-2.39c.63-.63,1.43-.94,2.4-.94s1.77.31,2.4.94.95,1.42.95,2.39Z"/><path d="M833.62,356.12c0,.97-.32,1.77-.95,2.41-.63.63-1.43.95-2.4.95s-1.77-.32-2.4-.95c-.63-.64-.95-1.44-.95-2.41s.32-1.77.95-2.39,1.43-.94,2.4-.94,1.77.31,2.4.94c.63.63.95,1.42.95,2.39Z"/><path d="M844.47,356.12c0,.97-.32,1.77-.95,2.41-.63.63-1.43.95-2.4.95s-1.77-.32-2.4-.95c-.63-.64-.95-1.44-.95-2.41s.32-1.77.95-2.39c.63-.63,1.43-.94,2.4-.94s1.77.31,2.4.94.95,1.42.95,2.39Z"/><path class="cls-3" d="M920.47,345.43v22.1h-165.4v-22.1h165.4M923.47,342.43h-171.4v28.1h171.4v-28.1h0Z"/><path class="cls-4" d="M562,490.82c-15.14,0-27.41,12.27-27.41,27.41s12.27,27.41,27.41,27.41,27.41-12.27,27.41-27.41-12.27-27.41-27.41-27.41ZM573.72,512.03l-13.07,17.99c-.44.61-1.12,1-1.87,1.05s-1.49-.21-2.01-.74l-5.99-5.99c-1.01-1.01-1.01-2.63,0-3.63,1.01-1,2.63-1.01,3.63,0l3.85,3.85,11.31-15.55h0c.84-1.16,2.44-1.41,3.59-.58s1.4,2.44.57,3.59Z"/><path class="cls-1" d="M305.89,151.45h24.87v-10h-24.87c-11.85,0-21.5,9.64-21.5,21.5v31.29l-11.95-11.96v14.4l16.95,16.95,16.95-16.95v-14.4l-11.95,11.96v-31.29c0-6.34,5.16-11.5,11.5-11.5Z"/><path class="cls-1" d="M491.84,505.18h-14.4l11.96,11.95h-183.52c-6.34,0-11.5-5.16-11.5-11.5v-33.87h-10v33.87c0,11.85,9.64,21.5,21.5,21.5h183.52l-11.96,11.95h14.4l16.95-16.95-16.95-16.95Z"/><path class="cls-1" d="M829.61,487.76v17.87c0,6.34-5.16,11.5-11.5,11.5h-183.52l11.96-11.95h-14.4l-16.95,16.95,16.95,16.95h14.4l-11.96-11.95h183.52c11.85,0,21.5-9.64,21.5-21.5v-17.87h-10Z"/><path class="cls-1" d="M839.61,194.23v-31.29c0-11.85-9.64-21.5-21.5-21.5h-24.87v10h24.87c6.34,0,11.5,5.16,11.5,11.5v31.29l-11.95-11.96v14.4l16.95,16.95,16.95-16.95v-14.4l-11.95,11.96Z"/></svg>