<?xml version="1.0" encoding="UTF-8"?><svg id="Devices" xmlns="http://www.w3.org/2000/svg" viewBox="0 0 800 800"><defs><style>.cls-1{fill:#fff;}.cls-2{fill:#a3916e;}.cls-3{fill:#2b5ea3;}</style></defs><circle class="cls-1" cx="400" cy="400" r="400"/><circle class="cls-3" cx="400" cy="400" r="380"/><circle class="cls-2" cx="400" cy="400" r="360"/><circle class="cls-1" cx="400" cy="400" r="340"/><path class="cls-2" d="M201.39,501.27c-2.33-2.48-4.96-5.1-7.73-6.85-1.89-1.17-6.42-3.65-12.83-3.65-7.14,0-14.14,3.35-17.64,9.62-1.46,2.48-2.33,5.54-2.33,8.46,0,6.42,4.08,12.54,9.77,15.6,3.35,1.75,8.31,2.77,11.81,3.94,7,2.04,15.46,5.25,20.7,10.64,2.62,2.62,7.44,9.19,7.44,19.54-.15,3.94-.73,12.98-8.46,20.41-3.35,3.5-10.64,9.19-22.6,9.19-8.31,0-17.2-2.92-23.62-8.31-3.5-2.92-5.83-6.27-8.6-10.06l8.02-6.27c.44.58,2.48,4.08,4.52,6.42,6.56,7.73,15.6,8.31,19.1,8.31s12.83-.44,18.08-9.62c1.02-1.6,2.77-4.96,2.77-9.92,0-2.19-.29-6.71-3.79-10.93-5.83-7.29-15.31-8.6-23.62-11.23-3.21-1.02-6.12-2.19-9.19-3.94-11.37-6.85-12.98-17.64-12.98-22.6,0-2.33.15-6.56,2.48-11.67,2.77-6.27,10.79-17.5,28.29-17.5,10.5,0,17.2,3.94,20.41,6.27,3.06,2.19,6.56,5.98,7.14,6.56l-7.14,7.58Z"/><path class="cls-2" d="M273.13,564.84c2.33-6.85,4.96-13.56,7.58-20.12,3.35-7.87,6.85-15.6,10.21-23.33,5.98-14.14,11.81-28.43,17.64-42.72l20.7,106.15-9.77,1.6-14.14-76.84c-1.75,4.96-3.5,9.77-5.39,14.58-2.62,6.42-5.54,12.69-8.31,19.1-3.35,7.87-6.56,15.75-9.91,23.62-2.92,7.14-5.98,14.14-9.04,21.29l-32.37-78.15-14.44,76.4-10.06-1.6,21.14-106.29,36.16,86.32Z"/><path class="cls-2" d="M370.55,566.16l11.96-30.62c1.02-1.9,1.9-3.5,1.9-5.39,0-1.46-.58-2.77-2.04-5.39l-17.06-40.53,9.91-2.33,14.87,35.58,14.73-35.58,8.75,2.04-18.52,45.49,15.46,37.33,32.51-84.86,9.48,2.48-42.14,106.15-20.7-49.43-19.97,48.99-43.6-105.85,10.35-2.33,34.12,84.28Z"/><path class="cls-2" d="M469.56,584.82l-10.06,1.46v-102.65c4.96-.29,9.91-.73,14.73-.73,4.23,0,17.35-.15,28.58,8.17,11.67,8.75,12.83,21.29,12.83,26.54,0,6.85-1.9,11.66-3.06,14-3.5,7.87-12.98,20.12-34.12,20.12-3.06,0-5.98-.15-8.89-.29v33.39ZM469.41,542.39c2.77,0,5.54,0,8.31-.15,3.06-.15,15.16-.29,22.6-10.21,1.6-2.19,4.66-7.15,4.66-14.44,0-3.5-1.02-12.54-8.75-18.95-7.73-6.12-17.06-6.12-26.83-6.27v50.01Z"/><path class="cls-2" d="M535.76,482.61v93.75h43.45l-2.77,9.48h-50.89v-101.77l10.21-1.46Z"/><path class="cls-2" d="M652.12,497.48c-3.94-2.19-11.67-7-23.48-7-5.1,0-16.77,1.02-27.56,10.21-5.25,4.37-15.16,14.87-15.16,33.53,0,4.67.73,16.48,8.75,26.97,8.02,10.35,21.14,16.62,33.97,16.62,9.77,0,15.6-3.06,24.06-7.87l-2.62,13.12c-4.52,1.9-10.94,4.81-22.02,4.81-5.83,0-18.08-.73-30.47-9.77-14.14-10.35-22.45-26.54-22.45-44.03,0-6.71,1.31-21.29,12.83-34.85,5.1-5.98,18.37-18.66,40.24-18.66,10.64,0,18.66,3.21,22.45,4.52l1.46,12.39Z"/><path class="cls-3" d="M360.42,427.57c.16-1.9.5-3.75.92-5.57l-7.33-.34c-35.26-1.51-70.53-2.95-105.8-4.02-32.81-.97-65.63-1.77-98.4-1.62l-4.82,12.21h215.36l.06-.66Z"/><path class="cls-3" d="M380.19,428.23c1.34-9.79,9.66-17.38,19.81-17.38s18.47,7.59,19.81,17.38h11.93c-1.38-16.31-15.08-29.17-31.74-29.17s-30.36,12.86-31.74,29.17h11.93Z"/><path class="cls-3" d="M366.6,409.57c-4.96-.72-9.91-1.45-14.87-2.13-42.28-5.72-84.57-11.48-127.09-14.05-21.51-1.32-43.04-2.39-64.58-3.31l-7.96,20.17c32.15.35,64.22,1.57,96.29,2.96,35.28,1.57,70.53,3.49,105.78,5.5l7.94.48c1.07-3.43,2.59-6.66,4.5-9.62Z"/><path class="cls-3" d="M374.27,400.81c-27.09-11.04-55.33-19.18-84-24.81-20.27-3.93-40.73-6.94-61.32-8.64-19.46-1.57-39.02-2.61-58.54-3.52l-7.89,19.99c20.83,1.38,41.66,2.9,62.48,4.66,42.64,3.53,84.97,9.52,127.18,15.85,5.44.82,10.88,1.69,16.31,2.54,1.71-2.22,3.66-4.24,5.79-6.06Z"/><path class="cls-3" d="M389.96,392.54c-5.04-4.51-10.25-8.81-15.65-12.84-11.82-8.74-24.4-16.4-37.56-22.72-26.39-12.54-54.71-20.42-83.31-24.99-22.21-3.81-44.9-5.87-67.71-6.99l-11.64,29.51c18.54,1.76,37.05,3.72,55.56,5.9,20.76,2.19,41.38,5.69,61.76,10.12,29.5,6.49,58.5,15.59,86.15,27.75,3.74-2.59,7.92-4.55,12.4-5.74Z"/><path class="cls-3" d="M391.23,392.22c2.54-.66,4.08-.79,6.77-.93-8.14-10.37-31.92-36.61-79.05-59.84-57.7-28.43-122.47-33.59-123.12-33.64l-1.45-.11-3.26,8.26,2.55.29c24.64,2.75,44.64,6.13,62.9,10.63,31.14,8.42,59.06,20.12,82.97,34.76,13.76,8.52,25.52,17.18,35.94,26.49,5.12,4.58,10.75,9.15,15.74,14.1Z"/><path class="cls-3" d="M605.62,297.7l-1.44.11c-.65.05-65.43,5.2-123.13,33.64-47.14,23.23-70.91,49.47-79.05,59.84,2.69.14,4.19.27,6.73.93,4.64-4.96,10.67-9.53,15.78-14.1,10.42-9.31,22.18-17.97,35.94-26.49,23.92-14.64,51.84-26.34,82.93-34.75,18.31-4.51,38.31-7.89,62.94-10.64l2.55-.29-3.26-8.26Z"/><path class="cls-3" d="M614.27,325c-22.81,1.13-45.5,3.18-67.71,6.99-28.6,4.57-56.92,12.45-83.31,24.99-13.16,6.32-25.74,13.98-37.56,22.72-5.4,4.03-10.61,8.33-15.65,12.84,4.48,1.19,8.66,3.15,12.4,5.74,27.65-12.16,56.65-21.27,86.15-27.75,20.39-4.43,41.01-7.93,61.76-10.12,18.52-2.18,37.02-4.14,55.56-5.9l-11.64-29.51Z"/><path class="cls-3" d="M629.59,363.83c-19.52.92-39.08,1.95-58.54,3.52-20.59,1.7-41.05,4.71-61.32,8.64-28.67,5.63-56.92,13.78-84,24.82h0c1.03.88,2.02,1.81,2.95,2.79.04.05.09.09.13.14.95,1,1.86,2.04,2.7,3.14,0,0,0,0,0,0,5.44-.86,10.87-1.72,16.31-2.54,42.21-6.33,84.54-12.32,127.18-15.85,20.82-1.76,41.64-3.28,62.48-4.66l-7.89-19.99Z"/><path class="cls-3" d="M639.95,390.08c-21.54.92-43.07,1.99-64.58,3.31-42.53,2.56-84.81,8.33-127.09,14.05-4.96.68-9.92,1.41-14.88,2.13,1.91,2.96,3.43,6.19,4.5,9.62l7.94-.48c35.25-2.01,70.5-3.93,105.78-5.5,32.07-1.4,64.14-2.62,96.29-2.96l-7.96-20.17Z"/><path class="cls-3" d="M439.58,427.57l.06.66h215.37l-4.82-12.21c-32.77-.15-65.59.64-98.4,1.62-35.27,1.08-70.54,2.51-105.8,4.02l-7.33.34c.42,1.82.76,3.67.92,5.57Z"/><rect class="cls-2" x="265.13" y="210.05" width="269.73" height="15.15"/><polygon class="cls-2" points="534.87 200.96 399.69 139.49 265.13 200.96 534.87 200.96"/><path class="cls-2" d="M276.91,256c1.08,14.8,1.94,34.22,2.6,53.37,7.11,2.43,14.35,5.09,21.61,7.98.7-21.63,1.64-44.48,2.87-61.35l11.78-9.36h-11.01c.15-1.54.29-3.02.45-4.37l10.56-8.4h-50.65l10.56,8.4c.15,1.36.3,2.83.45,4.37h-11.01l11.78,9.36Z"/><path class="cls-2" d="M422.97,256c2.09,28.77,3.37,74.91,3.99,102.76,5.96-5.11,12.5-9.91,19.45-14.41.7-27.57,1.88-64.12,3.64-88.34l11.78-9.36h-11.01c.15-1.54.29-3.02.45-4.37l10.56-8.4h-50.65l10.56,8.4c.15,1.36.3,2.83.45,4.37h-11.01l11.78,9.36Z"/><path class="cls-2" d="M349.94,256c1.74,23.98,2.92,60.05,3.62,87.52,6.95,4.43,13.5,9.17,19.5,14.21.63-27.94,1.9-73.32,3.97-101.72l11.78-9.36h-11.01c.15-1.54.29-3.02.45-4.37l10.56-8.4h-50.65l10.56,8.4c.15,1.36.3,2.83.45,4.37h-11.01l11.78,9.36Z"/><path class="cls-2" d="M496,256c1.24,17,2.19,40.06,2.89,61.84,7.24-2.91,14.48-5.59,21.58-8.04.67-19.29,1.53-38.88,2.62-53.8l11.78-9.36h-11.01c.15-1.54.29-3.02.45-4.37l10.56-8.4h-50.65l10.56,8.4c.15,1.36.3,2.83.45,4.37h-11.01l11.78,9.36Z"/></svg>