<?xml version="1.0" encoding="UTF-8"?>
<svg viewBox="0 0 118 28" xmlns="http://www.w3.org/2000/svg">
<path d="m10.181 27.412c-0.60913 0-1.1802-0.1305-1.7132-0.3916s-0.98442-0.6309-1.3543-1.1095l-7.1139-9.0393 0.62002-0.6526c0.43511-0.4569 0.95723-0.7288 1.5664-0.8158 0.60915-0.0871 1.1748 0.0326 1.6969 0.3589l2.4148 1.4685v-10.704c0-0.36984 0.12509-0.67985 0.37528-0.93003 0.25018-0.25019 0.56019-0.37528 0.93003-0.37528s0.68529 0.12509 0.94635 0.37528c0.26106 0.25018 0.39159 0.56019 0.39159 0.93003v15.403l-3.1654-1.958 3.3938 4.3402c0.13053 0.1523 0.28282 0.2719 0.45686 0.359 0.17404 0.087 0.35896 0.1305 0.55474 0.1305h7.2119c0.7179 0 1.3325-0.2556 1.8437-0.7669 0.5113-0.5112 0.7669-1.1258 0.7669-1.8437v-5.2213c0-0.3698-0.1251-0.6798-0.3753-0.93s-0.5602-0.3753-0.93-0.3753h-7.1466v-2.6106h7.1466c1.0877 0 2.0123 0.3807 2.7737 1.1421 0.7615 0.7615 1.1422 1.6861 1.1422 2.7738v5.2213c0 1.4358-0.5113 2.665-1.5337 3.6875-1.0225 1.0225-2.2517 1.5337-3.6875 1.5337h-7.2119zm-8.2234-17.622c-0.28281-0.47861-0.50036-0.9953-0.65265-1.55-0.15229-0.55476-0.22843-1.1258-0.22843-1.7132 0-1.8057 0.63634-3.3449 1.909-4.6175 1.2727-1.2727 2.8118-1.909 4.6175-1.909s3.3449 0.63634 4.6176 1.909c1.2726 1.2727 1.909 2.8118 1.909 4.6175 0 0.58739-0.0762 1.1585-0.2285 1.7132-0.1522 0.55475-0.3698 1.0714-0.6526 1.55l-2.2517-1.3053c0.1741-0.30457 0.3046-0.61458 0.3916-0.93003s0.1306-0.65809 0.1306-1.0279c0-1.0878-0.3808-2.0124-1.1422-2.7738-0.76142-0.76144-1.686-1.1422-2.7738-1.1422s-2.0124 0.38071-2.7738 1.1422c-0.76143 0.76143-1.1422 1.686-1.1422 2.7738 0 0.36984 0.04351 0.71248 0.13053 1.0279s0.21755 0.62546 0.39159 0.93003l-2.2517 1.3053z" fill="#886361"/>
<path d="m48.819 25.062c-0.7179 0-1.3325-0.2557-1.8437-0.7669-0.5113-0.5113-0.7669-1.1258-0.7669-1.8438v-16.316c0-0.30457 0.049-0.59283 0.1469-0.86477s0.2447-0.52756 0.4405-0.76687l1.8274-2.219c0.1958-0.23931 0.4188-0.41879 0.669-0.53844 0.2502-0.11966 0.5276-0.17948 0.8321-0.17948h15.664c0.3045 0 0.5819 0.05982 0.8321 0.17948 0.2502 0.11965 0.4732 0.29913 0.669 0.53844l1.8274 2.219c0.1958 0.23931 0.3426 0.49493 0.4405 0.76687s0.1469 0.5602 0.1469 0.86477v16.316c0 0.718-0.2556 1.3325-0.7669 1.8438-0.5112 0.5112-1.1258 0.7669-1.8437 0.7669h-18.274zm0.5222-19.58h17.23l-1.1095-1.3053h-15.011l-1.1095 1.3053zm-0.5222 16.969h18.274v-14.358h-18.274v14.358zm12.466-2.5453 4.6339-4.6339-4.6339-4.6338-1.8927 1.8927 2.7412 2.7411-2.7412 2.7412 1.8927 1.8927zm-6.5918 0 1.8927-1.8927-2.7411-2.7412 2.7411-2.7411-1.8927-1.8927-4.6338 4.6338 4.6338 4.6339z" fill="#886361"/>
<path d="m94.504 25.062v-5.5476l17.198-17.165c0.261-0.26106 0.555-0.45686 0.881-0.58739s0.653-0.19579 0.979-0.19579c0.348 0 0.68 0.06526 0.995 0.19579 0.316 0.13053 0.593 0.32633 0.832 0.58739l1.828 1.8274c0.261 0.2393 0.457 0.51668 0.587 0.83213 0.131 0.31545 0.196 0.64722 0.196 0.9953 0 0.32633-0.065 0.65265-0.196 0.97898-0.13 0.32633-0.326 0.62002-0.587 0.88108l-17.165 17.198h-5.5475zm2.6106-2.6107h1.8275l12.824-12.792-0.913-0.94635-0.947-0.91372-12.792 12.825v1.8274zm13.739-13.738-0.947-0.91372 1.86 1.8601-0.913-0.94635zm-3.296 16.349c1.61 0 3.1-0.4025 4.47-1.2075 1.371-0.8049 2.056-1.9253 2.056-3.3611 0-0.7832-0.207-1.4576-0.62-2.0233-0.413-0.5656-0.968-1.0551-1.664-1.4684l-1.925 1.9253c0.5 0.2175 0.892 0.4569 1.174 0.7179 0.283 0.2611 0.425 0.5439 0.425 0.8485 0 0.5003-0.397 0.9518-1.192 1.3542-0.794 0.4025-1.702 0.6037-2.724 0.6037-0.37 0-0.68 0.1251-0.93 0.3753-0.251 0.2502-0.376 0.5602-0.376 0.93 0 0.3699 0.125 0.6799 0.376 0.9301 0.25 0.2502 0.56 0.3753 0.93 0.3753zm-12.303-9.9857 1.9579-1.9579c-0.4351-0.1741-0.7777-0.3536-1.0279-0.5385s-0.3753-0.3753-0.3753-0.571c0-0.2611 0.1958-0.5222 0.5874-0.7832 0.3916-0.2611 1.2183-0.6636 2.4801-1.2074 1.9147-0.82674 3.1867-1.5773 3.8177-2.2517s0.947-1.4358 0.947-2.2843c0-1.1965-0.479-2.1483-1.436-2.8554s-2.2192-1.0606-3.7855-1.0606c-0.979 0-1.8547 0.17404-2.627 0.52212s-1.3651 0.77231-1.7785 1.2727c-0.2393 0.28281-0.3372 0.59826-0.2937 0.94635 0.0436 0.34808 0.2067 0.6309 0.4895 0.84845 0.2829 0.2393 0.5983 0.3372 0.9464 0.29369s0.6418-0.18492 0.8811-0.42422c0.3045-0.30458 0.6417-0.52213 1.0116-0.65266 0.3698-0.13053 0.8267-0.19579 1.3706-0.19579 0.8919 0 1.55 0.13053 1.9745 0.39159 0.424 0.26106 0.636 0.56563 0.636 0.91371 0 0.30458-0.19 0.58196-0.571 0.83214s-1.2564 0.69073-2.6269 1.3216c-1.7404 0.76143-2.9479 1.4522-3.6223 2.0722-0.6744 0.62006-1.0116 1.3869-1.0116 2.3007 0 0.6961 0.1849 1.2889 0.5548 1.7784 0.3698 0.4895 0.8702 0.9192 1.5011 1.289z" fill="#886361"/>
</svg>
