<svg xmlns="http://www.w3.org/2000/svg" viewBox="0 0 255.99 164"><defs><style>.cls-1{fill:#fff;}</style></defs><rect class="cls-1" y="161.77" width="255.99" height="2.23"/><rect class="cls-1" width="255.99" height="2.23"/><path class="cls-1" d="M223.99,162h32v-32c0,17.67-14.33,32-32,32Z"/><path class="cls-1" d="M0,162h159.99c-17.67,0-32-14.33-32-32H0v32Z"/><path class="cls-1" d="M223.99,114h-63.99c-17.67,0-32-14.33-32-32H0v48C0,112.33,14.33,98,32,98h63.99c17.67,0,32,14.33,32,32h127.99v-48c0,17.67-14.33,32-32,32Z"/><path class="cls-1" d="M223.99,66h-63.99c-17.67,0-32-14.33-32-32H0v48C0,64.33,14.33,50,32,50h63.99c17.67,0,32,14.33,32,32h127.99v-48c0,17.67-14.33,32-32,32Z"/><path class="cls-1" d="M0,34C0,16.33,14.33,2,32,2H0v32Z"/><path class="cls-1" d="M95.99,2c17.67,0,32,14.33,32,32h127.99V2H95.99Z"/></svg>