<?xml version="1.0" encoding="UTF-8"?>
<svg id="Layer_1" xmlns="http://www.w3.org/2000/svg" version="1.1" viewBox="0 0 256 164">
  <!-- Generator: Adobe Illustrator 30.1.0, SVG Export Plug-In . SVG Version: 2.1.1 Build 136)  -->
  <defs>
    <style>
      .st0 {
        fill: #fff;
      }
    </style>
  </defs>
  <rect class="st0" y="161.8" width="256" height="2.2"/>
  <rect class="st0" width="256" height="2.2"/>
  <path class="st0" d="M224,162h32v-32c0,17.7-14.3,32-32,32Z"/>
  <path class="st0" d="M0,162h160c-17.7,0-32-14.3-32-32H0v32Z"/>
  <path class="st0" d="M224,114h-64c-17.7,0-32-14.3-32-32H0v48c0-17.7,14.3-32,32-32h64c17.7,0,32,14.3,32,32h128v-48c0,17.7-14.3,32-32,32h0Z"/>
  <path class="st0" d="M224,66h-64c-17.7,0-32-14.3-32-32H0v48c0-17.7,14.3-32,32-32h64c17.7,0,32,14.3,32,32h128v-48c0,17.7-14.3,32-32,32h0Z"/>
  <path class="st0" d="M0,34C0,16.3,14.3,2,32,2H0v32Z"/>
  <path class="st0" d="M96,2c17.7,0,32,14.3,32,32h128V2H96Z"/>
</svg>