<?xml version="1.0" encoding="UTF-8"?><svg xmlns="http://www.w3.org/2000/svg" viewBox="0 0 113 153"><path d="M110.17,44.49c-4.97-16.19-15.96-29.48-30.92-37.41C65-.48,48.58-2.31,33.02,1.9c-.48.13-.86.48-1.02.95s-.09.98.2,1.38l8.39,11.57c.33.46.9.69,1.46.6,10.21-1.66,20.47.03,29.67,4.91,11.17,5.92,19.36,15.83,23.07,27.91,3.71,12.08,2.5,24.88-3.42,36.05-5.92,11.17-15.83,19.36-27.91,23.07-4.06,1.25-8.27,1.94-12.52,2.07-.55.02-1.05.33-1.29.83l-6.47,12.91c-.22.45-.21.97.03,1.41.24.43.69.72,1.19.76,1.72.14,3.43.21,5.14.21,6.31,0,12.57-.94,18.65-2.81,16.21-4.98,29.5-15.95,37.42-30.89,7.93-14.97,9.56-32.13,4.59-48.32Z"/><path d="M62.24,61.91L18.95,2.65c-.28-.39-.73-.62-1.21-.62H1.5c-.56,0-1.08.32-1.34.82-.25.5-.21,1.11.13,1.56l43.71,59.83L1.19,150.51c-.23.46-.2,1.02.07,1.46s.75.71,1.27.71h14.63c.57,0,1.09-.32,1.34-.83L62.37,63.46c.25-.5.2-1.1-.13-1.55Z"/></svg>