<svg xmlns="http://www.w3.org/2000/svg">
	<symbol id="logo" viewBox="0 0 110 150">
		<path d="M102.76,90.93c7.74-14.61,9.34-31.37,4.48-47.18-4.86-15.81-15.58-28.78-30.19-36.53C63.06-.19,47.12-1.94,31.92,2.17l8.39,11.57c10.44-1.7,21.1.02,30.61,5.06,11.52,6.1,19.97,16.33,23.8,28.79,3.83,12.46,2.57,25.67-3.53,37.19-6.11,11.52-16.33,19.97-28.79,23.8-4.25,1.31-8.59,2.01-12.92,2.14l-6.47,12.91c7.88.63,15.77-.25,23.23-2.54,15.16-4.66,28.54-15.08,36.53-30.16Z"/><polygon points="1.04 150 15.67 150 59.53 61.62 16.23 2.36 0 2.36 44.25 62.92 1.04 150"/>
	</symbol>
	<symbol id="calendar" viewBox="0 0 28 32">
		<path d="M7.5 0C8.2793 0 8.90625 0.626953 8.90625 1.40625V3.75H17.3438V1.40625C17.3438 0.626953 17.9707 0 18.75 0C19.5293 0 20.1562 0.626953 20.1562 1.40625V3.75H22.5C24.5684 3.75 26.25 5.43164 26.25 7.5V8.4375V11.25V26.25C26.25 28.3184 24.5684 30 22.5 30H3.75C1.68164 30 0 28.3184 0 26.25V11.25V8.4375V7.5C0 5.43164 1.68164 3.75 3.75 3.75H6.09375V1.40625C6.09375 0.626953 6.7207 0 7.5 0ZM23.4375 11.25H2.8125V26.25C2.8125 26.7656 3.23437 27.1875 3.75 27.1875H22.5C23.0156 27.1875 23.4375 26.7656 23.4375 26.25V11.25ZM19.2773 17.4023L12.7148 23.9648C12.1641 24.5156 11.2734 24.5156 10.7285 23.9648L6.97852 20.2148C6.42773 19.6641 6.42773 18.7734 6.97852 18.2285C7.5293 17.6836 8.41992 17.6777 8.96484 18.2285L11.7188 20.9824L17.2852 15.416C17.8359 14.8652 18.7266 14.8652 19.2715 15.416C19.8164 15.9668 19.8223 16.8574 19.2715 17.4023H19.2773Z"/>
	</symbol>
</svg>
